<svg width="25" height="20" viewBox="0 0 25 20" fill="none" xmlns="http://www.w3.org/2000/svg">
<g clip-path="url(#clip0_25_718)">
<path d="M10.0039 9.6875C10.6195 9.6875 11.229 9.56625 11.7977 9.33068C12.3664 9.09512 12.8832 8.74984 13.3185 8.31456C13.7537 7.87929 14.099 7.36254 14.3346 6.79383C14.5702 6.22511 14.6914 5.61557 14.6914 5C14.6914 4.38443 14.5702 3.77489 14.3346 3.20617C14.099 2.63746 13.7537 2.12071 13.3185 1.68544C12.8832 1.25016 12.3664 0.904884 11.7977 0.669315C11.229 0.433746 10.6195 0.3125 10.0039 0.3125C9.38833 0.3125 8.77879 0.433746 8.21008 0.669315C7.64136 0.904884 7.12462 1.25016 6.68934 1.68544C6.25407 2.12071 5.90879 2.63746 5.67322 3.20617C5.43765 3.77489 5.31641 4.38443 5.31641 5C5.31641 5.61557 5.43765 6.22511 5.67322 6.79383C5.90879 7.36254 6.25407 7.87929 6.68934 8.31456C7.12462 8.74984 7.64136 9.09512 8.21008 9.33068C8.77879 9.56625 9.38833 9.6875 10.0039 9.6875ZM8.84375 11.875C4.99609 11.875 1.87891 14.9922 1.87891 18.8398C1.87891 19.4805 2.39844 20 3.03906 20H10.7148L11.1406 17.8711C11.3086 17.0234 11.7266 16.2461 12.3359 15.6367L14.9648 13.0078C13.8711 12.293 12.5664 11.8789 11.1602 11.8789H8.83984L8.84375 11.875ZM12.9805 18.2383L12.5156 20.5664C12.5078 20.6016 12.5039 20.6406 12.5039 20.6797C12.5039 20.9922 12.7578 21.25 13.0742 21.25C13.1133 21.25 13.1484 21.2461 13.1875 21.2383L15.5156 20.7734C16 20.6758 16.4453 20.4375 16.793 20.0898L21.4375 15.4453L18.3125 12.3203L13.668 16.9648C13.3203 17.3125 13.082 17.7578 12.9844 18.2422L12.9805 18.2383ZM23.4414 13.4336C24.3047 12.5703 24.3047 11.1719 23.4414 10.3086C22.5781 9.44531 21.1797 9.44531 20.3164 10.3086L19.1914 11.4336L22.3164 14.5586L23.4414 13.4336Z" fill="#F0869D"/>
</g>
<defs>
<clipPath id="clip0_25_718">
<rect width="25" height="20" fill="white"/>
</clipPath>
</defs>
</svg>
