<svg width="23" height="20" viewBox="0 0 23 20" fill="none" xmlns="http://www.w3.org/2000/svg">
<path d="M3.75 2.5C2.37109 2.5 1.25 3.62109 1.25 5V15C1.25 16.3789 2.37109 17.5 3.75 17.5H13.75C15.1289 17.5 16.25 16.3789 16.25 15V5C16.25 3.62109 15.1289 2.5 13.75 2.5H3.75ZM18.125 13.125L20.9961 15.4219C21.1602 15.5547 21.3633 15.625 21.5742 15.625C22.0859 15.625 22.5 15.2109 22.5 14.6992V5.30078C22.5 4.78906 22.0859 4.375 21.5742 4.375C21.3633 4.375 21.1602 4.44531 20.9961 4.57812L18.125 6.875V13.125Z" fill="#F0869D"/>
</svg>
