<svg width="20" height="20" viewBox="0 0 20 20" fill="none" xmlns="http://www.w3.org/2000/svg">
<g clip-path="url(#clip0_25_681)">
<path d="M10.8498 0.334017C10.3693 -0.111339 9.62707 -0.111339 9.15046 0.334017L0.399609 8.45981C0.0245726 8.81141 -0.10044 9.35443 0.0870787 9.83104C0.274597 10.3076 0.731673 10.6241 1.24735 10.6241H1.87241V17.4998C1.87241 18.8788 2.99361 20 4.37265 20H15.6238C17.0028 20 18.124 18.8788 18.124 17.4998V10.6241H18.7491C19.2647 10.6241 19.7257 10.3076 19.9132 9.83104C20.1008 9.35443 19.9757 8.8075 19.6007 8.45981L10.8498 0.334017ZM9.37314 12.4993H10.6233C11.6585 12.4993 12.4984 13.3392 12.4984 14.3745V18.1248H7.49796V14.3745C7.49796 13.3392 8.33788 12.4993 9.37314 12.4993Z" fill="#F0869D"/>
</g>
<defs>
<clipPath id="clip0_25_681">
<rect width="20" height="20" fill="white"/>
</clipPath>
</defs>
</svg>
