<svg width="20" height="20" viewBox="0 0 20 20" fill="none" xmlns="http://www.w3.org/2000/svg">
<path d="M10 9.52381C9.37466 9.52381 8.75544 9.40064 8.1777 9.16133C7.59996 8.92202 7.07501 8.57126 6.63283 8.12908C6.19064 7.6869 5.83988 7.16195 5.60057 6.58421C5.36127 6.00647 5.2381 5.38725 5.2381 4.7619C5.2381 4.13656 5.36127 3.51734 5.60057 2.9396C5.83988 2.36186 6.19064 1.83691 6.63283 1.39473C7.07501 0.952546 7.59996 0.601786 8.1777 0.362478C8.75544 0.12317 9.37466 -9.31832e-09 10 0C10.6253 -9.31832e-09 11.2446 0.12317 11.8223 0.362478C12.4 0.601786 12.925 0.952546 13.3672 1.39473C13.8094 1.83691 14.1601 2.36186 14.3994 2.9396C14.6387 3.51734 14.7619 4.13656 14.7619 4.7619C14.7619 5.38725 14.6387 6.00647 14.3994 6.58421C14.1601 7.16195 13.8094 7.6869 13.3672 8.12908C12.925 8.57126 12.4 8.92202 11.8223 9.16133C11.2446 9.40064 10.6253 9.52381 10 9.52381ZM8.78968 11.746H11.2103C11.5952 11.746 11.9048 12.0556 11.9048 12.4405C11.9048 12.6071 11.8452 12.7659 11.7381 12.8929L10.6508 14.1627L11.881 18.7302H11.9048L13.2778 13.2341C13.3651 12.8889 13.7183 12.6786 14.0516 12.8056C16.5079 13.7421 18.254 16.123 18.254 18.9087C18.254 19.5079 17.7659 19.996 17.1667 19.996L2.83333 20C2.23413 20 1.74603 19.5119 1.74603 18.9127C1.74603 16.127 3.49206 13.746 5.94841 12.8095C6.28175 12.6825 6.63492 12.8929 6.72222 13.2381L8.09524 18.7341H8.11905L9.34921 14.1667L8.26191 12.8968C8.15476 12.7698 8.09524 12.6111 8.09524 12.4444C8.09524 12.0595 8.40476 11.75 8.78968 11.75V11.746Z" fill="#F0869D"/>
</svg>
