<svg width="20" height="20" viewBox="0 0 20 20" fill="none" xmlns="http://www.w3.org/2000/svg">
<path d="M12.8125 4.375H7.1875L5.73047 1.46484C5.66016 1.32422 5.625 1.16797 5.625 1.01172C5.625 0.453125 6.07812 0 6.63672 0H13.3633C13.9219 0 14.375 0.453125 14.375 1.01172C14.375 1.16797 14.3398 1.32422 14.2695 1.46484L12.8125 4.375ZM6.625 6.25H13.375L15.2773 7.83594C17.875 10 19.375 13.2031 19.375 16.582C19.375 18.4688 17.8438 20 15.957 20H4.03906C2.15625 20 0.625 18.4688 0.625 16.582C0.625 13.2031 2.125 10 4.72266 7.83594L6.625 6.25ZM10.1562 8.75C9.72656 8.75 9.375 9.10156 9.375 9.53125V9.6875C8.25 9.69922 7.34375 10.6133 7.34375 11.7383C7.34375 12.7422 8.06641 13.5977 9.05859 13.7617L10.6875 14.0352C10.9219 14.0742 11.0938 14.2773 11.0938 14.5156C11.0938 14.7852 10.875 15.0039 10.6055 15.0039L8.4375 15C8.00781 15 7.65625 15.3516 7.65625 15.7812C7.65625 16.2109 8.00781 16.5625 8.4375 16.5625H9.375V16.7188C9.375 17.1484 9.72656 17.5 10.1562 17.5C10.5859 17.5 10.9375 17.1484 10.9375 16.7188V16.5352C11.9141 16.375 12.6562 15.5312 12.6562 14.5117C12.6562 13.5078 11.9336 12.6523 10.9414 12.4883L9.3125 12.2148C9.07812 12.1758 8.90625 11.9727 8.90625 11.7344C8.90625 11.4648 9.125 11.2461 9.39453 11.2461H11.25C11.6797 11.2461 12.0312 10.8945 12.0312 10.4648C12.0312 10.0352 11.6797 9.68359 11.25 9.68359H10.9375V9.52734C10.9375 9.09766 10.5859 8.74609 10.1562 8.74609V8.75Z" fill="#F0869D"/>
</svg>
