<svg width="20" height="20" viewBox="0 0 20 20" fill="none" xmlns="http://www.w3.org/2000/svg">
<g clip-path="url(#clip0_25_793)">
<path d="M0.238135 0.238135C-0.0760007 0.555649 -0.0760007 1.06908 0.238135 1.38659L2.12971 3.27816C2.44722 3.59568 2.96065 3.59568 3.27478 3.27816C3.58892 2.96065 3.5923 2.44722 3.27478 2.13309L1.38659 0.238135C1.06908 -0.0793785 0.555649 -0.0793785 0.241513 0.238135H0.238135ZM19.7619 0.238135C19.4444 -0.0793785 18.9309 -0.0793785 18.6168 0.238135L16.7218 2.12971C16.4043 2.44722 16.4043 2.96065 16.7218 3.27478C17.0394 3.58892 17.5528 3.5923 17.8669 3.27478L19.7619 1.38659C20.0794 1.06908 20.0794 0.555649 19.7619 0.241513V0.238135ZM1.38659 19.7619L3.27816 17.8703C3.59568 17.5528 3.59568 17.0394 3.27816 16.7252C2.96065 16.4111 2.44722 16.4077 2.13309 16.7252L0.238135 18.6134C-0.0793785 18.9309 -0.0793785 19.4444 0.238135 19.7585C0.555649 20.0726 1.06908 20.076 1.38321 19.7585L1.38659 19.7619ZM19.7619 19.7619C20.0794 19.4444 20.0794 18.9309 19.7619 18.6168L17.8703 16.7252C17.5528 16.4077 17.0394 16.4077 16.7252 16.7252C16.4111 17.0427 16.4077 17.5562 16.7252 17.8703L18.6168 19.7619C18.9343 20.0794 19.4477 20.0794 19.7619 19.7619ZM10 8.37865C10.5733 8.37865 11.1232 8.15089 11.5286 7.74548C11.934 7.34006 12.1618 6.7902 12.1618 6.21686C12.1618 5.64351 11.934 5.09365 11.5286 4.68823C11.1232 4.28282 10.5733 4.05506 10 4.05506C9.42666 4.05506 8.87679 4.28282 8.47138 4.68823C8.06596 5.09365 7.8382 5.64351 7.8382 6.21686C7.8382 6.7902 8.06596 7.34006 8.47138 7.74548C8.87679 8.15089 9.42666 8.37865 10 8.37865ZM10 9.45955C7.90914 9.45955 6.21686 11.1518 6.21686 13.2427V13.5129C6.21686 13.9622 6.57828 14.3236 7.02753 14.3236H12.9725C13.4217 14.3236 13.7831 13.9622 13.7831 13.5129V13.2427C13.7831 11.1518 12.0909 9.45955 10 9.45955ZM17.2961 6.7573C17.2961 6.25563 17.0968 5.7745 16.742 5.41976C16.3873 5.06502 15.9062 4.86573 15.4045 4.86573C14.9028 4.86573 14.4217 5.06502 14.0669 5.41976C13.7122 5.7745 13.5129 6.25563 13.5129 6.7573C13.5129 7.25898 13.7122 7.74011 14.0669 8.09485C14.4217 8.44959 14.9028 8.64888 15.4045 8.64888C15.9062 8.64888 16.3873 8.44959 16.742 8.09485C17.0968 7.74011 17.2961 7.25898 17.2961 6.7573ZM14.4317 10.1486C15.0464 11.0235 15.4045 12.0909 15.4045 13.2427V13.5129C15.4045 13.7967 15.3572 14.0703 15.266 14.3236H17.9277C18.3263 14.3236 18.6472 13.9993 18.6472 13.6041V13.2427C18.6472 11.4525 17.1947 10 15.4045 10C15.0667 10 14.7391 10.0507 14.4317 10.1486ZM5.56832 10.1486C5.26094 10.0507 4.93329 10 4.59551 10C2.80527 10 1.35281 11.4525 1.35281 13.2427V13.6041C1.35281 14.0027 1.67708 14.3236 2.07229 14.3236H4.734C4.6428 14.0703 4.59551 13.7967 4.59551 13.5129V13.2427C4.59551 12.0909 4.95356 11.0235 5.56832 10.1486ZM6.48708 6.7573C6.48708 6.5089 6.43815 6.26293 6.34309 6.03343C6.24803 5.80394 6.1087 5.59541 5.93305 5.41976C5.7574 5.24411 5.54888 5.10478 5.31938 5.00972C5.08988 4.91466 4.84391 4.86573 4.59551 4.86573C4.3471 4.86573 4.10113 4.91466 3.87163 5.00972C3.64214 5.10478 3.43361 5.24411 3.25796 5.41976C3.08232 5.59541 2.94298 5.80394 2.84792 6.03343C2.75286 6.26293 2.70394 6.5089 2.70394 6.7573C2.70394 7.00571 2.75286 7.25168 2.84792 7.48118C2.94298 7.71067 3.08232 7.9192 3.25796 8.09485C3.43361 8.2705 3.64214 8.40983 3.87163 8.50489C4.10113 8.59995 4.3471 8.64888 4.59551 8.64888C4.84391 8.64888 5.08988 8.59995 5.31938 8.50489C5.54888 8.40983 5.7574 8.2705 5.93305 8.09485C6.1087 7.9192 6.24803 7.71067 6.34309 7.48118C6.43815 7.25168 6.48708 7.00571 6.48708 6.7573Z" fill="#F0869D"/>
</g>
<defs>
<clipPath id="clip0_25_793">
<rect width="20" height="20" fill="white"/>
</clipPath>
</defs>
</svg>
