<svg width="25" height="20" viewBox="0 0 25 20" fill="none" xmlns="http://www.w3.org/2000/svg">
<g clip-path="url(#clip0_25_731)">
<path d="M11.1719 11.875C15.0195 11.875 18.1367 14.9922 18.1367 18.8398C18.1367 19.4805 17.6172 20 16.9766 20H3.04688C2.40625 20 1.88672 19.4805 1.88672 18.8398C1.88672 14.9922 5.00391 11.875 8.85156 11.875H11.1719ZM22.8789 4.13672C23.1836 3.71875 23.7695 3.625 24.1875 3.92969C24.6055 4.23438 24.6992 4.82031 24.3945 5.23828L20.3945 10.7383C20.2305 10.9609 19.9766 11.1055 19.7031 11.1211C19.4297 11.1367 19.1562 11.0352 18.9648 10.8359L17.1523 8.96094C16.793 8.58984 16.8008 7.99609 17.1758 7.63672C17.5469 7.27734 18.1406 7.28906 18.5 7.66016L19.5352 8.73047L22.8789 4.13281V4.13672ZM10.0117 9.6875C9.39615 9.6875 8.7866 9.56625 8.21789 9.33068C7.64918 9.09512 7.13243 8.74984 6.69716 8.31456C6.26188 7.87929 5.9166 7.36254 5.68103 6.79383C5.44546 6.22511 5.32422 5.61557 5.32422 5C5.32422 4.38443 5.44546 3.77489 5.68103 3.20617C5.9166 2.63746 6.26188 2.12071 6.69716 1.68544C7.13243 1.25016 7.64918 0.904884 8.21789 0.669315C8.7866 0.433746 9.39615 0.3125 10.0117 0.3125C10.6273 0.3125 11.2368 0.433746 11.8055 0.669315C12.3743 0.904884 12.891 1.25016 13.3263 1.68544C13.7616 2.12071 14.1068 2.63746 14.3424 3.20617C14.578 3.77489 14.6992 4.38443 14.6992 5C14.6992 5.61557 14.578 6.22511 14.3424 6.79383C14.1068 7.36254 13.7616 7.87929 13.3263 8.31456C12.891 8.74984 12.3743 9.09512 11.8055 9.33068C11.2368 9.56625 10.6273 9.6875 10.0117 9.6875Z" fill="#F0869D"/>
</g>
<defs>
<clipPath id="clip0_25_731">
<rect width="25" height="20" fill="white"/>
</clipPath>
</defs>
</svg>
