<svg width="20" height="20" viewBox="0 0 20 20" fill="none" xmlns="http://www.w3.org/2000/svg">
<g clip-path="url(#clip0_25_743)">
<path d="M10.6211 0.789062C10.2383 0.570312 9.76563 0.570312 9.37892 0.789062L0.628915 5.78906C0.136728 6.07031 -0.10546 6.64844 0.0390717 7.19531C0.183603 7.74219 0.683603 8.125 1.25001 8.125H2.50001V16.25L0.500009 17.75C0.183603 17.9844 9.19751e-06 18.3555 9.19751e-06 18.75C9.19751e-06 19.4414 0.558603 20 1.25001 20H18.75C19.4414 20 20 19.4414 20 18.75C20 18.3555 19.8164 17.9844 19.5 17.75L17.5 16.25V8.125H18.75C19.3164 8.125 19.8125 7.74219 19.957 7.19531C20.1016 6.64844 19.8594 6.07031 19.3672 5.78906L10.6172 0.789062H10.6211ZM15.625 8.125V16.25H13.125V8.125H15.625ZM11.25 8.125V16.25H8.75001V8.125H11.25ZM6.87501 8.125V16.25H4.37501V8.125H6.87501ZM10 3.75C10.3315 3.75 10.6495 3.8817 10.8839 4.11612C11.1183 4.35054 11.25 4.66848 11.25 5C11.25 5.33152 11.1183 5.64946 10.8839 5.88388C10.6495 6.1183 10.3315 6.25 10 6.25C9.66849 6.25 9.35055 6.1183 9.11613 5.88388C8.88171 5.64946 8.75001 5.33152 8.75001 5C8.75001 4.66848 8.88171 4.35054 9.11613 4.11612C9.35055 3.8817 9.66849 3.75 10 3.75Z" fill="#F0869D"/>
</g>
<defs>
<clipPath id="clip0_25_743">
<rect width="20" height="20" fill="white"/>
</clipPath>
</defs>
</svg>
