<svg width="20" height="20" viewBox="0 0 20 20" fill="none" xmlns="http://www.w3.org/2000/svg">
<g clip-path="url(#clip0_25_734)">
<path d="M10 20C7.34784 20 4.8043 18.9464 2.92893 17.0711C1.05357 15.1957 0 12.6522 0 10C0 7.34784 1.05357 4.8043 2.92893 2.92893C4.8043 1.05357 7.34784 0 10 0C12.6522 0 15.1957 1.05357 17.0711 2.92893C18.9464 4.8043 20 7.34784 20 10C20 12.6522 18.9464 15.1957 17.0711 17.0711C15.1957 18.9464 12.6522 20 10 20ZM10 12.5C9.66848 12.5 9.35054 12.6317 9.11612 12.8661C8.8817 13.1005 8.75 13.4185 8.75 13.75C8.75 14.0815 8.8817 14.3995 9.11612 14.6339C9.35054 14.8683 9.66848 15 10 15C10.3315 15 10.6495 14.8683 10.8839 14.6339C11.1183 14.3995 11.25 14.0815 11.25 13.75C11.25 13.4185 11.1183 13.1005 10.8839 12.8661C10.6495 12.6317 10.3315 12.5 10 12.5ZM10 5C9.28906 5 8.72266 5.60547 8.77344 6.31641L9.0625 10.3789C9.09766 10.8711 9.50781 11.25 9.99609 11.25C10.4883 11.25 10.8945 10.8711 10.9297 10.3789L11.2188 6.31641C11.2695 5.60547 10.707 5 9.99219 5H10Z" fill="#F0869D"/>
</g>
<defs>
<clipPath id="clip0_25_734">
<rect width="20" height="20" fill="white"/>
</clipPath>
</defs>
</svg>
