<svg width="20" height="20" viewBox="0 0 20 20" fill="none" xmlns="http://www.w3.org/2000/svg">
<path d="M11.3931 0C5.86971 0 1.39314 4.47656 1.39314 10C1.39314 15.5234 5.86971 20 11.3931 20C14.0806 20 16.522 18.9375 18.3189 17.2109C18.6041 16.9375 18.6861 16.5117 18.526 16.1523C18.3658 15.793 17.9908 15.5703 17.5963 15.6016C17.4049 15.6172 17.2135 15.625 17.0181 15.625C13.0494 15.625 9.83064 12.4062 9.83064 8.4375C9.83064 5.62109 11.4517 3.17969 13.8189 2C14.1744 1.82422 14.3775 1.44141 14.3306 1.04688C14.2838 0.652344 13.9947 0.332031 13.608 0.246094C12.8931 0.0859375 12.151 0 11.3931 0Z" fill="#F0869D"/>
</svg>
