<svg width="25" height="20" viewBox="0 0 25 20" fill="none" xmlns="http://www.w3.org/2000/svg">
<path d="M5.3125 5C5.3125 3.7568 5.80636 2.56451 6.68544 1.68544C7.56451 0.80636 8.7568 0.3125 10 0.3125C11.2432 0.3125 12.4355 0.80636 13.3146 1.68544C14.1936 2.56451 14.6875 3.7568 14.6875 5C14.6875 6.2432 14.1936 7.43549 13.3146 8.31456C12.4355 9.19364 11.2432 9.6875 10 9.6875C8.7568 9.6875 7.56451 9.19364 6.68544 8.31456C5.80636 7.43549 5.3125 6.2432 5.3125 5ZM1.875 18.8398C1.875 14.9922 4.99219 11.875 8.83984 11.875H11.1602C15.0078 11.875 18.125 14.9922 18.125 18.8398C18.125 19.4805 17.6055 20 16.9648 20H3.03516C2.39453 20 1.875 19.4805 1.875 18.8398ZM21.25 3.75C21.7695 3.75 22.1875 4.16797 22.1875 4.6875V6.5625H24.0625C24.582 6.5625 25 6.98047 25 7.5C25 8.01953 24.582 8.4375 24.0625 8.4375H22.1875V10.3125C22.1875 10.832 21.7695 11.25 21.25 11.25C20.7305 11.25 20.3125 10.832 20.3125 10.3125V8.4375H18.4375C17.918 8.4375 17.5 8.01953 17.5 7.5C17.5 6.98047 17.918 6.5625 18.4375 6.5625H20.3125V4.6875C20.3125 4.16797 20.7305 3.75 21.25 3.75Z" fill="#F0869D"/>
</svg>
