<svg width="18" height="20" viewBox="0 0 18 20" fill="none" xmlns="http://www.w3.org/2000/svg">
<g clip-path="url(#clip0_25_765)">
<path d="M2.5 8.75C2.5 5.29688 5.29688 2.5 8.75 2.5C12.2031 2.5 15 5.29688 15 8.75V10.2148C14.6094 10.0781 14.1875 10 13.75 10H13.125C12.0898 10 11.25 10.8398 11.25 11.875V16.875C11.25 17.9102 12.0898 18.75 13.125 18.75H13.75C15.8203 18.75 17.5 17.0703 17.5 15V8.75C17.5 3.91797 13.582 0 8.75 0C3.91797 0 0 3.91797 0 8.75V15C0 17.0703 1.67969 18.75 3.75 18.75H4.375C5.41016 18.75 6.25 17.9102 6.25 16.875V11.875C6.25 10.8398 5.41016 10 4.375 10H3.75C3.3125 10 2.89062 10.0742 2.5 10.2148V8.75Z" fill="#F0869D"/>
</g>
<defs>
<clipPath id="clip0_25_765">
<rect width="17.5" height="20" fill="white"/>
</clipPath>
</defs>
</svg>
