<svg width="15" height="20" viewBox="0 0 15 20" fill="none" xmlns="http://www.w3.org/2000/svg">
<g clip-path="url(#clip0_25_721)">
<path d="M3.125 0C1.74609 0 0.625 1.12109 0.625 2.5V17.5C0.625 18.8789 1.74609 20 3.125 20H11.875C13.2539 20 14.375 18.8789 14.375 17.5V2.5C14.375 1.12109 13.2539 0 11.875 0H3.125ZM5.9375 16.25H9.0625C9.58203 16.25 10 16.668 10 17.1875C10 17.707 9.58203 18.125 9.0625 18.125H5.9375C5.41797 18.125 5 17.707 5 17.1875C5 16.668 5.41797 16.25 5.9375 16.25Z" fill="#F0869D"/>
</g>
<defs>
<clipPath id="clip0_25_721">
<rect width="15" height="20" fill="white"/>
</clipPath>
</defs>
</svg>
