<svg width="15" height="22" viewBox="0 0 15 22" fill="none" xmlns="http://www.w3.org/2000/svg">
<path d="M5 5C5 3.62109 6.12109 2.5 7.5 2.5C8.73828 2.5 9.76562 3.39844 9.96484 4.58203C10.0781 5.26172 10.7227 5.72266 11.4062 5.60937C12.0898 5.49609 12.5469 4.85156 12.4336 4.16797C12.0352 1.80078 9.98047 0 7.5 0C4.73828 0 2.5 2.23828 2.5 5V7.5C1.12109 7.5 0 8.62109 0 10V18.75C0 20.1289 1.12109 21.25 2.5 21.25H12.5C13.8789 21.25 15 20.1289 15 18.75V10C15 8.62109 13.8789 7.5 12.5 7.5H5V5Z" fill="#F0869D"/>
</svg>
