<svg width="25" height="20" viewBox="0 0 25 20" fill="none" xmlns="http://www.w3.org/2000/svg">
<g clip-path="url(#clip0_25_705)">
<path d="M6.07811 0.675738C6.36718 0.117144 7.02733 -0.140668 7.61718 0.0741757L12.5 1.85543L17.3828 0.0741757C17.9726 -0.140668 18.6328 0.117144 18.9219 0.675738L22 6.64839C23.125 8.82808 22.4023 11.4257 20.4961 12.7656L21.7187 16.1328L23.3203 15.5468C23.9687 15.3125 24.6875 15.6445 24.9219 16.2929C25.1562 16.9414 24.8242 17.6601 24.1758 17.8945C22.3242 18.5703 20.4726 19.2421 18.6211 19.9179C17.9726 20.1562 17.2539 19.8203 17.0195 19.1718C16.7851 18.5234 17.1172 17.8046 17.7656 17.5703L19.3672 16.9843L18.1445 13.6171C15.8242 13.8203 13.6055 12.2929 13.0664 9.89839L12.4961 7.37105L11.9258 9.89839C11.3867 12.2929 9.16796 13.8203 6.84765 13.6171L5.62499 16.9843L7.22655 17.5703C7.87499 17.8085 8.21093 18.5234 7.97265 19.1718C7.73436 19.8203 7.01952 20.1562 6.37108 19.9179C4.51952 19.2421 2.66796 18.5664 0.816396 17.8945C0.167958 17.6562 -0.167979 16.9414 0.0703019 16.2929C0.308583 15.6445 1.02733 15.3125 1.67577 15.5468L3.27733 16.1328L4.49999 12.7656C2.59765 11.4257 1.8789 8.82808 3.0039 6.64839L6.07811 0.675738ZM7.79686 2.80074L6.73436 4.86324L10.2187 6.13277L10.7305 3.87105L7.79686 2.80074ZM17.207 2.80074L14.2734 3.87105L14.7851 6.13277L18.2695 4.86324L17.207 2.80074Z" fill="#F0869D"/>
</g>
<defs>
<clipPath id="clip0_25_705">
<rect width="25" height="20" fill="white"/>
</clipPath>
</defs>
</svg>
