<svg width="25" height="20" viewBox="0 0 25 20" fill="none" xmlns="http://www.w3.org/2000/svg">
<g clip-path="url(#clip0_25_711)">
<path d="M4.61719 2.43742C3.96484 2.21867 3.60937 1.50773 3.82812 0.855389C4.04687 0.203045 4.7539 -0.152424 5.41015 0.0624201L9.82422 1.53508C10.3672 0.617108 11.3711 -7.99003e-05 12.5156 -7.99003e-05C14.2422 -7.99003e-05 15.6406 1.39836 15.6406 3.12492C15.6406 3.24211 15.6328 3.35539 15.6211 3.46867L20.4102 5.06633C21.0664 5.28508 21.418 5.99211 21.1992 6.64836C20.9805 7.30461 20.2734 7.65617 19.6172 7.43742L14.3242 5.6718C14.1484 5.7968 13.9609 5.90226 13.7617 5.99211V18.7538C13.7617 19.4452 13.2031 20.0038 12.5117 20.0038H5.01172C4.32031 20.0038 3.76172 19.4452 3.76172 18.7538C3.76172 18.0624 4.32031 17.5038 5.01172 17.5038H11.2617V5.99211C10.4414 5.63273 9.80859 4.93742 9.53515 4.07804L4.61719 2.43742ZM7.84375 11.2499L5.01172 6.39836L2.18359 11.2499H7.84375ZM5.01562 14.9999C2.55859 14.9999 0.515624 13.6718 0.0937486 11.9179C-0.0078139 11.4882 0.132811 11.0468 0.355467 10.664L4.07422 4.28898C4.26953 3.95305 4.6289 3.74992 5.01562 3.74992C5.40234 3.74992 5.76172 3.95695 5.95703 4.28898L9.67578 10.664C9.89844 11.0468 10.0391 11.4882 9.9375 11.9179C9.51562 13.6679 7.47265 14.9999 5.01562 14.9999ZM19.9687 11.3984L17.1406 16.2499H22.8008L19.9727 11.3984H19.9687ZM24.8906 16.9179C24.4688 18.6718 22.4258 19.9999 19.9687 19.9999C17.5117 19.9999 15.4687 18.6718 15.0469 16.9179C14.9453 16.4882 15.0859 16.0468 15.3086 15.664L19.0273 9.28898C19.2227 8.95305 19.582 8.74992 19.9687 8.74992C20.3555 8.74992 20.7148 8.95695 20.9102 9.28898L24.6289 15.664C24.8516 16.0468 24.9922 16.4882 24.8906 16.9179Z" fill="#F0869D"/>
</g>
<defs>
<clipPath id="clip0_25_711">
<rect width="25" height="20" fill="white"/>
</clipPath>
</defs>
</svg>
