<svg width="15" height="20" viewBox="0 0 15 20" fill="none" xmlns="http://www.w3.org/2000/svg">
<g clip-path="url(#clip0_25_773)">
<path d="M2.15234 2.86719C1.66406 2.37891 0.871094 2.37891 0.382812 2.86719C-0.105469 3.35547 -0.105469 4.14844 0.382812 4.63672L5.75 10L0.386719 15.3672C-0.101563 15.8555 -0.101563 16.6484 0.386719 17.1367C0.875 17.625 1.66797 17.625 2.15625 17.1367L7.51953 11.7695L12.8867 17.1328C13.375 17.6211 14.168 17.6211 14.6562 17.1328C15.1445 16.6445 15.1445 15.8516 14.6562 15.3633L9.28906 10L14.6523 4.63281C15.1406 4.14453 15.1406 3.35156 14.6523 2.86328C14.1641 2.375 13.3711 2.375 12.8828 2.86328L7.51953 8.23047L2.15234 2.86719Z" fill="#F0869D"/>
</g>
<defs>
<clipPath id="clip0_25_773">
<rect width="15" height="20" fill="white"/>
</clipPath>
</defs>
</svg>
