<svg width="23" height="20" viewBox="0 0 23 20" fill="none" xmlns="http://www.w3.org/2000/svg">
<g clip-path="url(#clip0_25_723)">
<path d="M2.5 1.25C1.12109 1.25 0 2.37109 0 3.75V16.25C0 17.6289 1.12109 18.75 2.5 18.75H20C21.3789 18.75 22.5 17.6289 22.5 16.25V3.75C22.5 2.37109 21.3789 1.25 20 1.25H2.5ZM5.625 11.25H8.125C9.85156 11.25 11.25 12.6484 11.25 14.375C11.25 14.7188 10.9688 15 10.625 15H3.125C2.78125 15 2.5 14.7188 2.5 14.375C2.5 12.6484 3.89844 11.25 5.625 11.25ZM4.6875 7.5C4.6875 7.21273 4.74408 6.92828 4.85401 6.66288C4.96395 6.39748 5.12508 6.15633 5.3282 5.9532C5.53133 5.75008 5.77248 5.58895 6.03788 5.47901C6.30328 5.36908 6.58773 5.3125 6.875 5.3125C7.16227 5.3125 7.44672 5.36908 7.71212 5.47901C7.97752 5.58895 8.21867 5.75008 8.4218 5.9532C8.62492 6.15633 8.78605 6.39748 8.89599 6.66288C9.00592 6.92828 9.0625 7.21273 9.0625 7.5C9.0625 7.78727 9.00592 8.07172 8.89599 8.33712C8.78605 8.60252 8.62492 8.84367 8.4218 9.0468C8.21867 9.24992 7.97752 9.41105 7.71212 9.52099C7.44672 9.63092 7.16227 9.6875 6.875 9.6875C6.58773 9.6875 6.30328 9.63092 6.03788 9.52099C5.77248 9.41105 5.53133 9.24992 5.3282 9.0468C5.12508 8.84367 4.96395 8.60252 4.85401 8.33712C4.74408 8.07172 4.6875 7.78727 4.6875 7.5ZM14.0625 5.625H18.4375C18.957 5.625 19.375 6.04297 19.375 6.5625C19.375 7.08203 18.957 7.5 18.4375 7.5H14.0625C13.543 7.5 13.125 7.08203 13.125 6.5625C13.125 6.04297 13.543 5.625 14.0625 5.625ZM14.0625 9.375H18.4375C18.957 9.375 19.375 9.79297 19.375 10.3125C19.375 10.832 18.957 11.25 18.4375 11.25H14.0625C13.543 11.25 13.125 10.832 13.125 10.3125C13.125 9.79297 13.543 9.375 14.0625 9.375Z" fill="#F0869D"/>
</g>
<defs>
<clipPath id="clip0_25_723">
<rect width="22.5" height="20" fill="white"/>
</clipPath>
</defs>
</svg>
