<svg width="23" height="20" viewBox="0 0 23 20" fill="none" xmlns="http://www.w3.org/2000/svg">
<g clip-path="url(#clip0_25_728)">
<path d="M1.875 7.64844L10.0469 11.0117C10.4297 11.168 10.8359 11.25 11.25 11.25C11.6641 11.25 12.0703 11.168 12.4531 11.0117L21.9219 7.11328C22.2734 6.96875 22.5 6.62891 22.5 6.25C22.5 5.87109 22.2734 5.53125 21.9219 5.38672L12.4531 1.48828C12.0703 1.33203 11.6641 1.25 11.25 1.25C10.8359 1.25 10.4297 1.33203 10.0469 1.48828L0.578125 5.38672C0.226562 5.53125 0 5.87109 0 6.25V17.8125C0 18.332 0.417969 18.75 0.9375 18.75C1.45703 18.75 1.875 18.332 1.875 17.8125V7.64844ZM3.75 10.4492V15C3.75 17.0703 7.10938 18.75 11.25 18.75C15.3906 18.75 18.75 17.0703 18.75 15V10.4453L13.168 12.7461C12.5586 12.9961 11.9102 13.125 11.25 13.125C10.5898 13.125 9.94141 12.9961 9.33203 12.7461L3.75 10.4453V10.4492Z" fill="#F0869D"/>
</g>
<defs>
<clipPath id="clip0_25_728">
<rect width="22.5" height="20" fill="white"/>
</clipPath>
</defs>
</svg>
