<svg width="20" height="20" viewBox="0 0 20 20" fill="none" xmlns="http://www.w3.org/2000/svg">
<path d="M6.69318 0.829545L6.36364 1.81818H2.72727C2.05682 1.81818 1.51515 2.35985 1.51515 3.0303C1.51515 3.70076 2.05682 4.24242 2.72727 4.24242H17.2727C17.9432 4.24242 18.4848 3.70076 18.4848 3.0303C18.4848 2.35985 17.9432 1.81818 17.2727 1.81818H13.6364L13.3068 0.829545C13.1402 0.333333 12.678 0 12.1553 0H7.8447C7.32197 0 6.85985 0.333333 6.69318 0.829545ZM17.2727 6.06061H2.72727L3.52652 18.2992C3.58712 19.2576 4.38258 20 5.34091 20H14.6591C15.6174 20 16.4129 19.2576 16.4735 18.2992L17.2727 6.06061Z" fill="#F0869D"/>
</svg>
