<svg width="20" height="20" viewBox="0 0 20 20" fill="none" xmlns="http://www.w3.org/2000/svg">
<path d="M10.002 0C9.31055 0 8.75195 0.558594 8.75195 1.25V1.375C5.90039 1.95312 3.75195 4.47656 3.75195 7.5V8.34766C3.75195 10.2266 3.11133 12.0508 1.93945 13.5195L1.55664 13.9961C1.35742 14.2422 1.25195 14.5469 1.25195 14.8633C1.25195 15.6289 1.87305 16.25 2.63867 16.25H17.3613C18.127 16.25 18.748 15.6289 18.748 14.8633C18.748 14.5469 18.6426 14.2422 18.4434 13.9961L18.0605 13.5195C16.8926 12.0508 16.252 10.2266 16.252 8.34766V7.5C16.252 4.47656 14.1035 1.95312 11.252 1.375V1.25C11.252 0.558594 10.6934 0 10.002 0ZM7.58008 18.125C7.85742 19.2031 8.83789 20 10.002 20C11.166 20 12.1465 19.2031 12.4238 18.125H7.58008Z" fill="#F0869D"/>
</svg>
