<svg width="23" height="20" viewBox="0 0 23 20" fill="none" xmlns="http://www.w3.org/2000/svg">
<g clip-path="url(#clip0_25_781)">
<path d="M11.25 1.25C8.09375 1.25 5.56641 2.6875 3.72656 4.39844C1.89844 6.09766 0.675781 8.125 0.09375 9.51953C-0.0351562 9.82812 -0.0351562 10.1719 0.09375 10.4805C0.675781 11.875 1.89844 13.9062 3.72656 15.6016C5.56641 17.3086 8.09375 18.75 11.25 18.75C14.4063 18.75 16.9336 17.3125 18.7734 15.6016C20.6016 13.9023 21.8242 11.875 22.4062 10.4805C22.5352 10.1719 22.5352 9.82812 22.4062 9.51953C21.8242 8.125 20.6016 6.09375 18.7734 4.39844C16.9336 2.69141 14.4063 1.25 11.25 1.25ZM5.625 10C5.625 8.50816 6.21763 7.07742 7.27252 6.02252C8.32742 4.96763 9.75816 4.375 11.25 4.375C12.7418 4.375 14.1726 4.96763 15.2275 6.02252C16.2824 7.07742 16.875 8.50816 16.875 10C16.875 11.4918 16.2824 12.9226 15.2275 13.9775C14.1726 15.0324 12.7418 15.625 11.25 15.625C9.75816 15.625 8.32742 15.0324 7.27252 13.9775C6.21763 12.9226 5.625 11.4918 5.625 10ZM11.25 7.5C11.25 8.87891 10.1289 10 8.75 10C8.30078 10 7.87891 9.88281 7.51172 9.67188C7.47266 10.0977 7.50781 10.5352 7.625 10.9688C8.16016 12.9688 10.2188 14.1562 12.2188 13.6211C14.2188 13.0859 15.4063 11.0273 14.8711 9.02734C14.3945 7.24219 12.7031 6.10547 10.9219 6.26172C11.1289 6.625 11.25 7.04688 11.25 7.5Z" fill="#F0869D"/>
</g>
<defs>
<clipPath id="clip0_25_781">
<rect width="22.5" height="20" fill="white"/>
</clipPath>
</defs>
</svg>
