<svg width="23" height="20" viewBox="0 0 23 20" fill="none" xmlns="http://www.w3.org/2000/svg">
<g clip-path="url(#clip0_25_714)">
<path d="M11.25 -0.625C10.7305 -0.625 10.3125 -0.207031 10.3125 0.3125V0.78125H10.2422C8.8125 0.78125 7.65625 1.94141 7.65625 3.36719C7.65625 4.67188 8.62891 5.77344 9.92187 5.93359L12.3047 6.23047C12.5039 6.25391 12.6562 6.42578 12.6562 6.62891C12.6562 6.85156 12.4766 7.02734 12.2578 7.02734L9.375 7.03125C8.76953 7.03125 8.28125 7.51953 8.28125 8.125C8.28125 8.73047 8.76953 9.21875 9.375 9.21875H10.3125V9.6875C10.3125 10.207 10.7305 10.625 11.25 10.625C11.7695 10.625 12.1875 10.207 12.1875 9.6875V9.21875H12.2578C13.6875 9.21875 14.8437 8.05859 14.8437 6.63281C14.8437 5.32812 13.8711 4.22656 12.5781 4.06641L10.1953 3.76953C9.99609 3.74609 9.84375 3.57422 9.84375 3.37109C9.84375 3.14844 10.0234 2.97266 10.2422 2.97266L12.8125 2.96875C13.418 2.96875 13.9062 2.48047 13.9062 1.875C13.9062 1.26953 13.418 0.78125 12.8125 0.78125H12.1875V0.3125C12.1875 -0.207031 11.7695 -0.625 11.25 -0.625ZM4.26953 13.3398L2.60547 15H1.25C0.558594 15 0 15.5586 0 16.25V18.75C0 19.4414 0.558594 20 1.25 20H13.7695C14.9023 20 16.0078 19.6367 16.9219 18.9648L21.8672 15.3203C22.5625 14.8086 22.7109 13.832 22.1992 13.1367C21.6875 12.4414 20.7109 12.293 20.0156 12.8047L15.3359 16.25H10.9375C10.418 16.25 10 15.832 10 15.3125C10 14.793 10.418 14.375 10.9375 14.375H13.75C14.4414 14.375 15 13.8164 15 13.125C15 12.4336 14.4414 11.875 13.75 11.875H7.80469C6.48047 11.875 5.20703 12.4023 4.26953 13.3398Z" fill="#F0869D"/>
</g>
<defs>
<clipPath id="clip0_25_714">
<rect width="22.5" height="20" fill="white"/>
</clipPath>
</defs>
</svg>
