<svg width="25" height="20" viewBox="0 0 25 20" fill="none" xmlns="http://www.w3.org/2000/svg">
<g clip-path="url(#clip0_25_724)">
<path d="M22.5 1.87505C22.5 1.44145 22.2773 1.03911 21.9062 0.812548C21.5352 0.585985 21.0781 0.562548 20.6914 0.75786L16.1523 3.02739L9.14453 0.687548C8.82812 0.582079 8.48828 0.605517 8.19141 0.753954L3.19141 3.25395C2.76562 3.4688 2.5 3.90239 2.5 4.37505V18.125C2.5 18.5586 2.72266 18.961 3.09375 19.1875C3.46484 19.4141 3.92188 19.4375 4.30859 19.2422L8.84375 16.9727L15.6133 19.2305C15.4453 18.9805 15.2812 18.7188 15.1211 18.4532C14.6914 17.7383 14.2656 16.918 13.9492 16.0391L9.99609 14.7227V3.60942L14.9961 5.27739V9.1563C16.207 7.75786 18.0039 6.87505 19.9961 6.87505C20.8789 6.87505 21.7227 7.04692 22.4961 7.36333L22.5 1.87505ZM15.3125 13.3555C15.3125 16.0469 17.8164 19.2305 19.1641 20.75C19.6172 21.2579 20.3867 21.2579 20.8398 20.75C22.1875 19.2305 24.6914 16.0469 24.6914 13.3555C24.6914 10.8125 22.5938 8.75005 20.0039 8.75005C17.4141 8.75005 15.3125 10.8125 15.3125 13.3555Z" fill="#F0869D"/>
</g>
<defs>
<clipPath id="clip0_25_724">
<rect width="25" height="20" fill="white"/>
</clipPath>
</defs>
</svg>
