<svg width="18" height="20" viewBox="0 0 18 20" fill="none" xmlns="http://www.w3.org/2000/svg">
<g clip-path="url(#clip0_25_758)">
<path d="M2.5 1.25C1.12109 1.25 0 2.37109 0 3.75V16.25C0 17.6289 1.12109 18.75 2.5 18.75H15C16.3789 18.75 17.5 17.6289 17.5 16.25V3.75C17.5 2.37109 16.3789 1.25 15 1.25H2.5ZM5 4.375C5.49728 4.375 5.97419 4.57254 6.32583 4.92417C6.67746 5.27581 6.875 5.75272 6.875 6.25C6.875 6.74728 6.67746 7.22419 6.32583 7.57583C5.97419 7.92746 5.49728 8.125 5 8.125C4.50272 8.125 4.02581 7.92746 3.67417 7.57583C3.32254 7.22419 3.125 6.74728 3.125 6.25C3.125 5.75272 3.32254 5.27581 3.67417 4.92417C4.02581 4.57254 4.50272 4.375 5 4.375ZM10.625 8.75C10.9531 8.75 11.2539 8.92188 11.4258 9.19922L14.8633 14.8242C15.0391 15.1133 15.0469 15.4766 14.8828 15.7734C14.7188 16.0703 14.4023 16.25 14.0625 16.25H3.4375C3.08984 16.25 2.76562 16.0547 2.60547 15.7461C2.44531 15.4375 2.46875 15.0625 2.66797 14.7773L4.85547 11.6523C5.03125 11.4023 5.31641 11.2539 5.625 11.2539C5.93359 11.2539 6.21875 11.4023 6.39453 11.6523L7.42578 13.1289L9.82422 9.20312C9.99609 8.92578 10.2969 8.75391 10.625 8.75391V8.75Z" fill="#F0869D"/>
</g>
<defs>
<clipPath id="clip0_25_758">
<rect width="17.5" height="20" fill="white"/>
</clipPath>
</defs>
</svg>
