<svg width="23" height="20" viewBox="0 0 23 20" fill="none" xmlns="http://www.w3.org/2000/svg">
<g clip-path="url(#clip0_25_792)">
<path d="M2.5 5C2.5 4.42547 2.61316 3.85656 2.83303 3.32576C3.05289 2.79496 3.37515 2.31266 3.78141 1.90641C4.18766 1.50015 4.66996 1.17789 5.20076 0.958027C5.73156 0.738163 6.30047 0.625 6.875 0.625C7.44953 0.625 8.01844 0.738163 8.54924 0.958027C9.08004 1.17789 9.56234 1.50015 9.96859 1.90641C10.3748 2.31266 10.6971 2.79496 10.917 3.32576C11.1368 3.85656 11.25 4.42547 11.25 5C11.25 5.57453 11.1368 6.14344 10.917 6.67424C10.6971 7.20504 10.3748 7.68734 9.96859 8.09359C9.56234 8.49985 9.08004 8.82211 8.54924 9.04197C8.01844 9.26184 7.44953 9.375 6.875 9.375C6.30047 9.375 5.73156 9.26184 5.20076 9.04197C4.66996 8.82211 4.18766 8.49985 3.78141 8.09359C3.37515 7.68734 3.05289 7.20504 2.83303 6.67424C2.61316 6.14344 2.5 5.57453 2.5 5ZM0 18.125C0 14.3281 3.07812 11.25 6.875 11.25C10.6719 11.25 13.75 14.3281 13.75 18.125V18.3594C13.75 19.2656 13.0156 20 12.1094 20H1.64062C0.734375 20 0 19.2656 0 18.3594V18.125ZM16.875 2.5C17.8696 2.5 18.8234 2.89509 19.5267 3.59835C20.2299 4.30161 20.625 5.25544 20.625 6.25C20.625 7.24456 20.2299 8.19839 19.5267 8.90165C18.8234 9.60491 17.8696 10 16.875 10C15.8804 10 14.9266 9.60491 14.2233 8.90165C13.5201 8.19839 13.125 7.24456 13.125 6.25C13.125 5.25544 13.5201 4.30161 14.2233 3.59835C14.9266 2.89509 15.8804 2.5 16.875 2.5ZM16.875 11.875C19.9805 11.875 22.5 14.3945 22.5 17.5V18.375C22.5 19.2734 21.7734 20 20.875 20H15.2188C15.4766 19.5117 15.625 18.9531 15.625 18.3594V18.125C15.625 16.1133 14.9453 14.2617 13.8086 12.7852C14.6914 12.2109 15.7461 11.875 16.875 11.875Z" fill="#F0869D"/>
</g>
<defs>
<clipPath id="clip0_25_792">
<rect width="22.5" height="20" fill="white"/>
</clipPath>
</defs>
</svg>
