<svg width="23" height="20" viewBox="0 0 23 20" fill="none" xmlns="http://www.w3.org/2000/svg">
<g clip-path="url(#clip0_25_768)">
<path d="M10.5039 3.32812L5.94922 8.39062C5.76953 8.58984 5.77734 8.89844 5.96875 9.08984C7.16016 10.2812 9.09375 10.2812 10.2852 9.08984L11.5273 7.84766C11.6914 7.68359 11.8984 7.59375 12.1094 7.57812C12.375 7.55469 12.6484 7.64453 12.8516 7.84766L19.75 14.6875L22.5 12.5V1.25L18.125 3.75L17.1953 3.12891C16.5785 2.71862 15.8541 2.49982 15.1133 2.5H12.3633C12.3203 2.5 12.2734 2.5 12.2305 2.50391C11.5703 2.53906 10.9492 2.83594 10.5039 3.32812ZM4.55469 7.13672L8.72656 2.5H7.17969C6.18359 2.5 5.23047 2.89453 4.52734 3.59766L4.375 3.75L0 1.25V12.5L6.10938 17.5898C7.00781 18.3398 8.14062 18.75 9.30859 18.75H9.92188L9.64844 18.4766C9.28125 18.1094 9.28125 17.5156 9.64844 17.1523C10.0156 16.7891 10.6094 16.7852 10.9727 17.1523L12.5742 18.7539H12.9258C13.6719 18.7539 14.4023 18.5859 15.0664 18.2734L14.0234 17.2266C13.6562 16.8594 13.6562 16.2656 14.0234 15.9023C14.3906 15.5391 14.9844 15.5352 15.3477 15.9023L16.5977 17.1523L17.2812 16.4688C17.6289 16.1211 17.7305 15.6172 17.5781 15.1758L12.1914 9.83203L11.6094 10.4141C9.68359 12.3398 6.56641 12.3398 4.64062 10.4141C3.74219 9.51562 3.70703 8.07422 4.55469 7.13281V7.13672Z" fill="#F0869D"/>
</g>
<defs>
<clipPath id="clip0_25_768">
<rect width="22.5" height="20" fill="white"/>
</clipPath>
</defs>
</svg>
