<svg width="20" height="20" viewBox="0 0 20 20" fill="none" xmlns="http://www.w3.org/2000/svg">
<path d="M10 9.52381C10.6253 9.52381 11.2446 9.40064 11.8223 9.16133C12.4 8.92202 12.925 8.57126 13.3672 8.12908C13.8094 7.6869 14.1601 7.16195 14.3994 6.58421C14.6387 6.00647 14.7619 5.38725 14.7619 4.7619C14.7619 4.13656 14.6387 3.51734 14.3994 2.9396C14.1601 2.36186 13.8094 1.83691 13.3672 1.39473C12.925 0.952546 12.4 0.601786 11.8223 0.362478C11.2446 0.12317 10.6253 -9.31832e-09 10 0C9.37466 -9.31832e-09 8.75544 0.12317 8.1777 0.362478C7.59996 0.601786 7.07501 0.952546 6.63283 1.39473C6.19064 1.83691 5.83988 2.36186 5.60057 2.9396C5.36127 3.51734 5.2381 4.13656 5.2381 4.7619C5.2381 5.38725 5.36127 6.00647 5.60057 6.58421C5.83988 7.16195 6.19064 7.6869 6.63283 8.12908C7.07501 8.57126 7.59996 8.92202 8.1777 9.16133C8.75544 9.40064 9.37466 9.52381 10 9.52381ZM8.82143 11.746C4.9127 11.746 1.74603 14.9127 1.74603 18.8214C1.74603 19.4722 2.27381 20 2.9246 20H17.0754C17.7262 20 18.254 19.4722 18.254 18.8214C18.254 14.9127 15.0873 11.746 11.1786 11.746H8.82143Z" fill="#F0869D"/>
</svg>
