<svg width="20" height="20" viewBox="0 0 20 20" fill="none" xmlns="http://www.w3.org/2000/svg">
<g clip-path="url(#clip0_25_707)">
<path d="M6.46094 3.75H13.5391C14.0703 3.75 14.543 4.08594 14.7188 4.58594L15.7383 7.5H4.26172L5.28125 4.58594C5.45703 4.08594 5.92969 3.75 6.46094 3.75ZM2.92188 3.76172L1.54688 7.6875C0.640625 8.0625 0 8.95703 0 10V13.75C0 14.6758 0.503906 15.4844 1.25 15.9141V17.5C1.25 18.1914 1.80859 18.75 2.5 18.75H3.75C4.44141 18.75 5 18.1914 5 17.5V16.25H15V17.5C15 18.1914 15.5586 18.75 16.25 18.75H17.5C18.1914 18.75 18.75 18.1914 18.75 17.5V15.9141C19.4961 15.4805 20 14.6758 20 13.75V10C20 8.95703 19.3594 8.0625 18.4531 7.6875L17.0781 3.76172C16.5508 2.25781 15.1328 1.25 13.5391 1.25H6.46094C4.86719 1.25 3.44922 2.25781 2.92188 3.76172ZM8.125 11.25H11.875C12.2188 11.25 12.5 11.5312 12.5 11.875V13.125C12.5 13.4688 12.2188 13.75 11.875 13.75H8.125C7.78125 13.75 7.5 13.4688 7.5 13.125V11.875C7.5 11.5312 7.78125 11.25 8.125 11.25ZM1.875 10.9375C1.875 10.418 2.29297 10 2.8125 10H4.0625C4.58203 10 5 10.418 5 10.9375C5 11.457 4.58203 11.875 4.0625 11.875H2.8125C2.29297 11.875 1.875 11.457 1.875 10.9375ZM15.9375 10H17.1875C17.707 10 18.125 10.418 18.125 10.9375C18.125 11.457 17.707 11.875 17.1875 11.875H15.9375C15.418 11.875 15 11.457 15 10.9375C15 10.418 15.418 10 15.9375 10Z" fill="#F0869D"/>
</g>
<defs>
<clipPath id="clip0_25_707">
<rect width="20" height="20" fill="white"/>
</clipPath>
</defs>
</svg>
