<svg width="20" height="20" viewBox="0 0 20 20" fill="none" xmlns="http://www.w3.org/2000/svg">
<g clip-path="url(#clip0_25_763)">
<path d="M10 0C10.663 0 11.2989 0.263392 11.7678 0.732233C12.2366 1.20107 12.5 1.83696 12.5 2.5C12.5 3.16304 12.2366 3.79893 11.7678 4.26777C11.2989 4.73661 10.663 5 10 5C9.33696 5 8.70107 4.73661 8.23223 4.26777C7.76339 3.79893 7.5 3.16304 7.5 2.5C7.5 1.83696 7.76339 1.20107 8.23223 0.732233C8.70107 0.263392 9.33696 0 10 0ZM13.75 12.1875C13.75 13.1641 13.2539 14.0234 12.5 14.5273V18.125C12.5 19.1602 11.6602 20 10.625 20H9.375C8.33984 20 7.5 19.1602 7.5 18.125V14.5273C6.74609 14.0234 6.25 13.1641 6.25 12.1875V10.625C6.25 8.55469 7.92969 6.875 10 6.875C12.0703 6.875 13.75 8.55469 13.75 10.625V12.1875ZM3.75 1.25C4.03727 1.25 4.32172 1.30658 4.58712 1.41651C4.85252 1.52645 5.09367 1.68758 5.2968 1.8907C5.49992 2.09383 5.66105 2.33498 5.77099 2.60038C5.88092 2.86578 5.9375 3.15023 5.9375 3.4375C5.9375 3.72477 5.88092 4.00922 5.77099 4.27462C5.66105 4.54002 5.49992 4.78117 5.2968 4.9843C5.09367 5.18742 4.85252 5.34855 4.58712 5.45849C4.32172 5.56842 4.03727 5.625 3.75 5.625C3.46273 5.625 3.17828 5.56842 2.91288 5.45849C2.64748 5.34855 2.40633 5.18742 2.2032 4.9843C2.00008 4.78117 1.83895 4.54002 1.72901 4.27462C1.61908 4.00922 1.5625 3.72477 1.5625 3.4375C1.5625 3.15023 1.61908 2.86578 1.72901 2.60038C1.83895 2.33498 2.00008 2.09383 2.2032 1.8907C2.40633 1.68758 2.64748 1.52645 2.91288 1.41651C3.17828 1.30658 3.46273 1.25 3.75 1.25ZM4.375 10.625V11.875C4.375 13.1445 4.84766 14.3008 5.625 15.1836V18.125C5.625 18.1719 5.625 18.2227 5.62891 18.2695C5.29688 18.5664 4.85938 18.75 4.375 18.75H3.125C2.08984 18.75 1.25 17.9102 1.25 16.875V14.6641C0.503906 14.2344 0 13.4258 0 12.5V11.25C0 9.17969 1.67969 7.5 3.75 7.5C4.24609 7.5 4.71875 7.59766 5.15234 7.76953C4.66016 8.60547 4.375 9.58203 4.375 10.625ZM14.375 18.125V15.1836C15.1523 14.3047 15.625 13.1445 15.625 11.875V10.625C15.625 9.58203 15.3398 8.60938 14.8477 7.76953C15.2812 7.59375 15.7539 7.5 16.25 7.5C18.3203 7.5 20 9.17969 20 11.25V12.5C20 13.4258 19.4961 14.2344 18.75 14.6641V16.875C18.75 17.9102 17.9102 18.75 16.875 18.75H15.625C15.1445 18.75 14.7031 18.5703 14.3711 18.2695C14.3711 18.2227 14.375 18.1719 14.375 18.125ZM16.25 1.25C16.5373 1.25 16.8217 1.30658 17.0871 1.41651C17.3525 1.52645 17.5937 1.68758 17.7968 1.8907C17.9999 2.09383 18.1611 2.33498 18.271 2.60038C18.3809 2.86578 18.4375 3.15023 18.4375 3.4375C18.4375 3.72477 18.3809 4.00922 18.271 4.27462C18.1611 4.54002 17.9999 4.78117 17.7968 4.9843C17.5937 5.18742 17.3525 5.34855 17.0871 5.45849C16.8217 5.56842 16.5373 5.625 16.25 5.625C15.9627 5.625 15.6783 5.56842 15.4129 5.45849C15.1475 5.34855 14.9063 5.18742 14.7032 4.9843C14.5001 4.78117 14.3389 4.54002 14.229 4.27462C14.1191 4.00922 14.0625 3.72477 14.0625 3.4375C14.0625 3.15023 14.1191 2.86578 14.229 2.60038C14.3389 2.33498 14.5001 2.09383 14.7032 1.8907C14.9063 1.68758 15.1475 1.52645 15.4129 1.41651C15.6783 1.30658 15.9627 1.25 16.25 1.25Z" fill="#F0869D"/>
</g>
<defs>
<clipPath id="clip0_25_763">
<rect width="20" height="20" fill="white"/>
</clipPath>
</defs>
</svg>
