<svg width="18" height="20" viewBox="0 0 18 20" fill="none" xmlns="http://www.w3.org/2000/svg">
<g clip-path="url(#clip0_25_710)">
<path d="M9.60547 -1.01172C9.34849 -1.16882 9.05314 -1.25195 8.75195 -1.25195C8.45076 -1.25195 8.15541 -1.16882 7.89844 -1.01172C6.94531 -0.429689 6.35547 -0.273439 5.23828 -0.296876C4.625 -0.312501 4.05469 0.0195301 3.75781 0.558592C3.22266 1.53906 2.78906 1.97265 1.80859 2.50781C1.26953 2.80078 0.941405 3.375 0.953124 3.98828C0.980468 5.10547 0.820311 5.69531 0.23828 6.64844C0.0811768 6.90541 -0.00195312 7.20076 -0.00195312 7.50195C-0.00195312 7.80314 0.0811768 8.09849 0.23828 8.35547C0.820311 9.30859 0.976561 9.89844 0.953124 11.0156C0.937499 11.6289 1.26953 12.1992 1.80859 12.4961C2.67187 12.9687 3.10937 13.3594 3.57031 14.1172L1.66797 17.9102C1.4375 18.375 1.625 18.9375 2.08594 19.168L5.44531 20.8477C5.89453 21.0703 6.44141 20.9023 6.68359 20.4648L8.74609 16.75L10.8086 20.4648C11.0508 20.9023 11.5977 21.0742 12.0469 20.8477L15.4062 19.168C15.8711 18.9375 16.0586 18.375 15.8242 17.9102L13.9258 14.1133C14.3828 13.3555 14.8242 12.9648 15.6875 12.4922C16.2266 12.1992 16.5547 11.625 16.543 11.0117C16.5156 9.89453 16.6758 9.30469 17.2578 8.35156C17.5781 7.82812 17.5781 7.16797 17.2578 6.64453C16.6758 5.6914 16.5195 5.10156 16.543 3.98437C16.5586 3.37109 16.2266 2.80078 15.6875 2.5039C14.707 1.96875 14.2734 1.53516 13.7383 0.554686C13.4453 0.0156238 12.8711 -0.312501 12.2578 -0.300782C11.1406 -0.273439 10.5508 -0.433595 9.59766 -1.01563L9.60547 -1.01172ZM8.75 3.75C9.74456 3.75 10.6984 4.14509 11.4016 4.84835C12.1049 5.55161 12.5 6.50544 12.5 7.5C12.5 8.49456 12.1049 9.44839 11.4016 10.1516C10.6984 10.8549 9.74456 11.25 8.75 11.25C7.75544 11.25 6.80161 10.8549 6.09835 10.1516C5.39509 9.44839 5 8.49456 5 7.5C5 6.50544 5.39509 5.55161 6.09835 4.84835C6.80161 4.14509 7.75544 3.75 8.75 3.75Z" fill="#F0869D"/>
</g>
<defs>
<clipPath id="clip0_25_710">
<rect width="17.5" height="20" fill="white"/>
</clipPath>
</defs>
</svg>
