<svg width="12" height="18" viewBox="0 0 12 18" fill="none" xmlns="http://www.w3.org/2000/svg">
<path d="M1.70793 3.29598C1.31745 2.90551 0.683327 2.90551 0.292854 3.29598C-0.0976181 3.68645 -0.0976181 4.32058 0.292854 4.71105L4.58493 9L0.295978 13.2921C-0.0944944 13.6825 -0.0944944 14.3167 0.295978 14.7071C0.686451 15.0976 1.32058 15.0976 1.71105 14.7071L6 10.4151L10.2921 14.704C10.6825 15.0945 11.3167 15.0945 11.7071 14.704C12.0976 14.3135 12.0976 13.6794 11.7071 13.2889L7.41507 9L11.704 4.70793C12.0945 4.31745 12.0945 3.68333 11.704 3.29285C11.3135 2.90238 10.6794 2.90238 10.2889 3.29285L6 7.58493L1.70793 3.29598Z" fill="#F0869D"/>
</svg>
