<svg width="18" height="20" viewBox="0 0 18 20" fill="none" xmlns="http://www.w3.org/2000/svg">
<g clip-path="url(#clip0_25_726)">
<path d="M0.367188 9.11719C-0.121094 9.60547 -0.121094 10.3984 0.367188 10.8867L6.61719 17.1367C7.10547 17.625 7.89844 17.625 8.38672 17.1367C8.875 16.6484 8.875 15.8555 8.38672 15.3672L3.01953 10L8.38281 4.63281C8.87109 4.14453 8.87109 3.35156 8.38281 2.86328C7.89453 2.375 7.10156 2.375 6.61328 2.86328L0.363281 9.11328L0.367188 9.11719ZM14.1172 2.86719L7.86719 9.11719C7.37891 9.60547 7.37891 10.3984 7.86719 10.8867L14.1172 17.1367C14.6055 17.625 15.3984 17.625 15.8867 17.1367C16.375 16.6484 16.375 15.8555 15.8867 15.3672L10.5195 10L15.8828 4.63281C16.3711 4.14453 16.3711 3.35156 15.8828 2.86328C15.3945 2.375 14.6016 2.375 14.1133 2.86328L14.1172 2.86719Z" fill="#F0869D"/>
</g>
<defs>
<clipPath id="clip0_25_726">
<rect width="17.5" height="20" fill="white"/>
</clipPath>
</defs>
</svg>
