<svg width="23" height="20" viewBox="0 0 23 20" fill="none" xmlns="http://www.w3.org/2000/svg">
<g clip-path="url(#clip0_25_715)">
<path d="M11.5625 7.5C10.7383 7.02734 9.91016 6.55469 8.75 6.35547V0.875C10.0664 0.507812 12.1641 0 13.75 0C17.5 0 22.5 1.875 22.5 5C22.5 8.125 17.8281 8.75 15.625 8.75C13.75 8.75 12.6562 8.125 11.5625 7.5ZM5 1.25H6.875V6.25H5C3.62109 6.25 2.5 5.12891 2.5 3.75C2.5 2.37109 3.62109 1.25 5 1.25ZM9.0625 12.5C10.1562 11.875 11.25 11.25 13.125 11.25C15.3281 11.25 20 11.875 20 15C20 18.125 15 20 11.25 20C9.66797 20 7.56641 19.4922 6.25 19.125V13.6445C7.41016 13.4414 8.23828 12.9688 9.0625 12.4961V12.5ZM2.5 18.75C1.12109 18.75 0 17.6289 0 16.25C0 14.8711 1.12109 13.75 2.5 13.75H4.375V18.75H2.5Z" fill="#F0869D"/>
</g>
<defs>
<clipPath id="clip0_25_715">
<rect width="22.5" height="20" fill="white"/>
</clipPath>
</defs>
</svg>
