<svg width="20" height="20" viewBox="0 0 20 20" fill="none" xmlns="http://www.w3.org/2000/svg">
<g clip-path="url(#clip0_25_701)">
<path d="M5.55947 11.8153H1.31358C0.292109 11.8153 -0.335544 10.7036 0.189551 9.82568L2.35967 6.20744C2.71657 5.61261 3.35653 5.25161 4.04982 5.25161H7.94701C11.0689 -0.0362689 15.725 -0.302919 18.8386 0.152437C19.3637 0.230381 19.774 0.640612 19.8478 1.1616C20.3032 4.27526 20.0365 8.93137 14.7486 12.0532V15.9504C14.7486 16.6437 14.3876 17.2837 13.7928 17.6406L10.1746 19.8107C9.30078 20.3358 8.18495 19.704 8.18495 18.6867V14.4408C8.18495 12.9927 7.00759 11.8153 5.55947 11.8153ZM16.7177 5.25161C16.7177 4.99302 16.6668 4.73696 16.5679 4.49806C16.4689 4.25916 16.3239 4.04208 16.141 3.85924C15.9582 3.67639 15.7411 3.53134 15.5022 3.43239C15.2633 3.33343 15.0072 3.2825 14.7486 3.2825C14.4901 3.2825 14.234 3.33343 13.9951 3.43239C13.7562 3.53134 13.5391 3.67639 13.3563 3.85924C13.1734 4.04208 13.0284 4.25916 12.9294 4.49806C12.8305 4.73696 12.7795 4.99302 12.7795 5.25161C12.7795 5.51019 12.8305 5.76625 12.9294 6.00515C13.0284 6.24405 13.1734 6.46113 13.3563 6.64397C13.5391 6.82682 13.7562 6.97187 13.9951 7.07082C14.234 7.16978 14.4901 7.22071 14.7486 7.22071C15.0072 7.22071 15.2633 7.16978 15.5022 7.07082C15.7411 6.97187 15.9582 6.82682 16.141 6.64397C16.3239 6.46113 16.4689 6.24405 16.5679 6.00515C16.6668 5.76625 16.7177 5.51019 16.7177 5.25161Z" fill="#F0869D"/>
</g>
<defs>
<clipPath id="clip0_25_701">
<rect width="20" height="20" fill="white"/>
</clipPath>
</defs>
</svg>
