<svg width="18" height="20" viewBox="0 0 18 20" fill="none" xmlns="http://www.w3.org/2000/svg">
<g clip-path="url(#clip0_25_771)">
<path d="M3.75 20H16.25C16.9414 20 17.5 19.4414 17.5 18.75C17.5 18.0586 16.9414 17.5 16.25 17.5V14.8945C16.9766 14.6367 17.5 13.9414 17.5 13.125V1.875C17.5 0.839844 16.6602 0 15.625 0H3.75C1.67969 0 0 1.67969 0 3.75V16.25C0 18.3203 1.67969 20 3.75 20ZM2.5 16.25C2.5 15.5586 3.05859 15 3.75 15H13.75V17.5H3.75C3.05859 17.5 2.5 16.9414 2.5 16.25ZM12.1328 8.125H10.8984C10.8438 9.02734 10.6641 9.85156 10.4062 10.5156C11.293 10.0273 11.9453 9.15625 12.1328 8.125ZM5.37109 8.125C5.55859 9.15625 6.21094 10.0273 7.09766 10.5156C6.83594 9.85156 6.66016 9.03125 6.60547 8.125H5.37109ZM8.35547 10.2734C8.53125 10.6484 8.67578 10.8125 8.75391 10.8789C8.83203 10.8125 8.97656 10.6523 9.15234 10.2734C9.39453 9.75 9.58594 9.00391 9.64844 8.125H7.85938C7.92188 9.00391 8.11328 9.75 8.35547 10.2734ZM7.85938 6.875H9.64844C9.58594 5.99609 9.39453 5.25 9.15234 4.72656C8.97656 4.35156 8.83203 4.1875 8.75391 4.12109C8.67578 4.1875 8.53125 4.34766 8.35547 4.72656C8.11328 5.25 7.92188 5.99609 7.85938 6.875ZM12.1367 6.875C11.9492 5.84375 11.2969 4.97266 10.4102 4.48438C10.6719 5.14844 10.8477 5.96875 10.9023 6.875H12.1367ZM6.60156 6.875C6.65625 5.97266 6.83594 5.14844 7.09375 4.48438C6.20703 4.97266 5.55469 5.84375 5.36719 6.875H6.60156ZM3.75 7.5C3.75 6.17392 4.27678 4.90215 5.21447 3.96447C6.15215 3.02678 7.42392 2.5 8.75 2.5C10.0761 2.5 11.3479 3.02678 12.2855 3.96447C13.2232 4.90215 13.75 6.17392 13.75 7.5C13.75 8.82608 13.2232 10.0979 12.2855 11.0355C11.3479 11.9732 10.0761 12.5 8.75 12.5C7.42392 12.5 6.15215 11.9732 5.21447 11.0355C4.27678 10.0979 3.75 8.82608 3.75 7.5Z" fill="#F0869D"/>
</g>
<defs>
<clipPath id="clip0_25_771">
<rect width="17.5" height="20" fill="white"/>
</clipPath>
</defs>
</svg>
