<svg width="20" height="20" viewBox="0 0 20 20" fill="none" xmlns="http://www.w3.org/2000/svg">
<g clip-path="url(#clip0_25_738)">
<path d="M10 20C12.6522 20 15.1957 18.9464 17.0711 17.0711C18.9464 15.1957 20 12.6522 20 10C20 7.34784 18.9464 4.8043 17.0711 2.92893C15.1957 1.05357 12.6522 0 10 0C7.34784 0 4.8043 1.05357 2.92893 2.92893C1.05357 4.8043 0 7.34784 0 10C0 12.6522 1.05357 15.1957 2.92893 17.0711C4.8043 18.9464 7.34784 20 10 20ZM14.7266 10.5859C15.0938 10.9531 15.0938 11.5469 14.7266 11.9102C14.3594 12.2734 13.7656 12.2773 13.4023 11.9102L10.0039 8.51172L6.60547 11.9102C6.23828 12.2773 5.64453 12.2773 5.28125 11.9102C4.91797 11.543 4.91406 10.9492 5.28125 10.5859L9.33594 6.52344C9.70312 6.15625 10.2969 6.15625 10.6602 6.52344L14.7266 10.5859Z" fill="#F0869D"/>
</g>
<defs>
<clipPath id="clip0_25_738">
<rect width="20" height="20" fill="white"/>
</clipPath>
</defs>
</svg>
