<svg width="20" height="20" viewBox="0 0 20 20" fill="none" xmlns="http://www.w3.org/2000/svg">
<g clip-path="url(#clip0_25_682)">
<path d="M7.74899 0.9375C7.85928 0.393382 8.3409 0 8.89972 0H11.0983C11.6571 0 12.1387 0.393382 12.249 0.9375L12.7821 3.51103C13.3005 3.73162 13.7858 4.01471 14.2269 4.34927L16.7196 3.52206C17.249 3.34559 17.8299 3.56618 18.1093 4.05147L19.2085 5.95588C19.488 6.44118 19.3887 7.05147 18.9696 7.42279L17.01 9.16544C17.0431 9.4375 17.0578 9.71691 17.0578 10C17.0578 10.2831 17.0394 10.5625 17.01 10.8346L18.9733 12.5809C19.3924 12.9522 19.488 13.5662 19.2122 14.0478L18.113 15.9522C17.8335 16.4338 17.2527 16.6581 16.7233 16.4816L14.2306 15.6544C13.7858 15.989 13.3005 16.2684 12.7858 16.4926L12.2563 19.0625C12.1424 19.6103 11.6608 20 11.1056 20H8.90707C8.34825 20 7.86663 19.6066 7.75634 19.0625L7.22693 16.4926C6.70855 16.2721 6.22693 15.989 5.78208 15.6544L3.2784 16.4816C2.74899 16.6581 2.1681 16.4375 1.88869 15.9522L0.789428 14.0478C0.510017 13.5625 0.609281 12.9522 1.0284 12.5809L2.99163 10.8346C2.95855 10.5625 2.94384 10.2831 2.94384 10C2.94384 9.71691 2.96222 9.4375 2.99163 9.16544L1.0284 7.41912C0.609281 7.04779 0.513693 6.43382 0.789428 5.95221L1.88869 4.04779C2.1681 3.5625 2.74899 3.34191 3.2784 3.51838L5.77105 4.34559C6.2159 4.01103 6.70119 3.73162 7.2159 3.50735L7.74899 0.9375ZM9.99899 12.9412C10.3852 12.9397 10.7674 12.8622 11.1237 12.7131C11.48 12.5639 11.8034 12.3461 12.0755 12.0719C12.3476 11.7978 12.563 11.4727 12.7095 11.1154C12.8559 10.758 12.9306 10.3752 12.9291 9.98897C12.9277 9.60273 12.8502 9.22056 12.701 8.86427C12.5519 8.50799 12.334 8.18456 12.0599 7.91248C11.7857 7.64039 11.4607 7.42496 11.1033 7.27849C10.7459 7.13202 10.3632 7.05738 9.97693 7.05882C9.59069 7.06027 9.20851 7.13778 8.85223 7.28693C8.49594 7.43607 8.17252 7.65394 7.90043 7.92807C7.62834 8.20221 7.41291 8.52726 7.26644 8.88465C7.11997 9.24205 7.04533 9.62479 7.04678 10.011C7.04823 10.3973 7.12574 10.7794 7.27489 11.1357C7.42403 11.492 7.64189 11.8154 7.91603 12.0875C8.19017 12.3596 8.51521 12.575 8.87261 12.7215C9.23 12.868 9.61275 12.9426 9.99899 12.9412Z" fill="#F0869D"/>
</g>
<defs>
<clipPath id="clip0_25_682">
<rect width="20" height="20" fill="white"/>
</clipPath>
</defs>
</svg>
