<svg width="20" height="20" viewBox="0 0 20 20" fill="none" xmlns="http://www.w3.org/2000/svg">
<path d="M8.5 1.16797L9.125 0.335938C9.28125 0.125 9.53125 0 9.79297 0C10.25 0 10.625 0.375 10.625 0.832031V1.69531C10.625 2.20703 10.8359 2.69922 11.207 3.05078L14.5156 6.21094C16.4219 8.03125 17.5 10.5547 17.5 13.1914C17.5 16.9531 14.4531 20 10.6914 20H10C5.85938 20 2.5 16.6406 2.5 12.5V12.3516C2.5 10.4453 3.25781 8.61719 4.60547 7.26953L4.74219 7.13281C4.90625 6.96875 5.13281 6.875 5.36719 6.875C5.85547 6.875 6.25 7.26953 6.25 7.75781V11.25C6.25 12.6289 7.37109 13.75 8.75 13.75C10.1289 13.75 11.25 12.6289 11.25 11.25V11.0977C11.25 10.3945 10.9688 9.71875 10.4727 9.22266L8.96484 7.71484C8.02734 6.77734 7.5 5.5 7.5 4.17188C7.5 3.08984 7.85156 2.03125 8.5 1.16797Z" fill="#F0869D"/>
</svg>
