<svg width="18" height="20" viewBox="0 0 18 20" fill="none" xmlns="http://www.w3.org/2000/svg">
<g clip-path="url(#clip0_25_755)">
<path d="M9.42578 -0.507812C8.98047 -0.597656 8.52344 -0.597656 8.07812 -0.507812L0.753906 0.957031C0.316406 1.04297 0 1.42969 0 1.875C0 2.27734 0.253906 2.62891 0.625 2.75781V5.625L0.0117188 8.69531C0.00390625 8.73047 0 8.76953 0 8.80859C0 9.12109 0.253906 9.37891 0.570312 9.37891H1.93359C2.24609 9.37891 2.50391 9.125 2.50391 8.80859C2.50391 8.76953 2.5 8.73438 2.49219 8.69531L1.875 5.625V3.01953L3.75 3.39453V5.625C3.75 8.38672 5.98828 10.625 8.75 10.625C11.5117 10.625 13.75 8.38672 13.75 5.625V3.39453L16.7461 2.79688C17.1836 2.70703 17.5 2.32031 17.5 1.875C17.5 1.42969 17.1836 1.04297 16.7461 0.957031L9.42578 -0.507812ZM8.75 8.75C7.02344 8.75 5.625 7.35156 5.625 5.625H11.875C11.875 7.35156 10.4766 8.75 8.75 8.75ZM4.69141 12.5039C2.29297 13.6055 0.625 16.0273 0.625 18.8398C0.625 19.4805 1.14453 20 1.78516 20H7.8125V14.2969L5.57031 12.6172C5.31641 12.4258 4.97656 12.375 4.6875 12.5078L4.69141 12.5039ZM9.6875 20H15.7148C16.3555 20 16.875 19.4805 16.875 18.8398C16.875 16.0273 15.207 13.6055 12.8086 12.5078C12.5195 12.375 12.1797 12.4258 11.9258 12.6172L9.68359 14.2969V20H9.6875Z" fill="#F0869D"/>
</g>
<defs>
<clipPath id="clip0_25_755">
<rect width="17.5" height="20" fill="white"/>
</clipPath>
</defs>
</svg>
