<svg width="20" height="20" viewBox="0 0 20 20" fill="none" xmlns="http://www.w3.org/2000/svg">
<path d="M11.1736 2.99014L10.3542 1.33042C10.2188 1.04223 9.79514 1.03181 9.64583 1.33042L8.82639 2.99014L7.01042 3.25056C6.6875 3.29917 6.54861 3.69848 6.78819 3.93806L8.10764 5.22278L7.79514 7.03181C7.74653 7.35473 8.07986 7.60473 8.37847 7.45542L10.0069 6.59431L11.625 7.44153C11.9236 7.59084 12.2604 7.34084 12.2083 7.01792L11.8958 5.20889L13.2153 3.93806C13.4514 3.70195 13.316 3.30264 12.9931 3.25056L11.1771 2.99014H11.1736ZM8.88889 10.0006C7.96875 10.0006 7.22222 10.7471 7.22222 11.6672V17.2228C7.22222 18.1429 7.96875 18.8895 8.88889 18.8895H11.1111C12.0313 18.8895 12.7778 18.1429 12.7778 17.2228V11.6672C12.7778 10.7471 12.0313 10.0006 11.1111 10.0006H8.88889ZM1.66667 12.2228C0.746528 12.2228 0 12.9693 0 13.8894V17.2228C0 18.1429 0.746528 18.8895 1.66667 18.8895H3.88889C4.80903 18.8895 5.55556 18.1429 5.55556 17.2228V13.8894C5.55556 12.9693 4.80903 12.2228 3.88889 12.2228H1.66667ZM14.4444 16.1117V17.2228C14.4444 18.1429 15.191 18.8895 16.1111 18.8895H18.3333C19.2535 18.8895 20 18.1429 20 17.2228V16.1117C20 15.1915 19.2535 14.445 18.3333 14.445H16.1111C15.191 14.445 14.4444 15.1915 14.4444 16.1117Z" fill="#F0869D"/>
</svg>
