<svg width="20" height="20" viewBox="0 0 20 20" fill="none" xmlns="http://www.w3.org/2000/svg">
<g clip-path="url(#clip0_25_685)">
<path d="M10 0C7.34784 0 4.8043 1.05357 2.92893 2.92893C1.05357 4.8043 0 7.34784 0 10C0 12.6522 1.05357 15.1957 2.92893 17.0711C4.8043 18.9464 7.34784 20 10 20C12.6522 20 15.1957 18.9464 17.0711 17.0711C18.9464 15.1957 20 12.6522 20 10C20 7.34784 18.9464 4.8043 17.0711 2.92893C15.1957 1.05357 12.6522 0 10 0ZM5.27344 9.41406C4.90625 9.04688 4.90625 8.45312 5.27344 8.08984C5.64062 7.72656 6.23437 7.72266 6.59766 8.08984L9.99609 11.4883L13.3945 8.08984C13.7617 7.72266 14.3555 7.72266 14.7188 8.08984C15.082 8.45703 15.0859 9.05078 14.7188 9.41406L10.6641 13.4766C10.2969 13.8438 9.70312 13.8438 9.33984 13.4766L5.27344 9.41406Z" fill="#F0869D"/>
</g>
<defs>
<clipPath id="clip0_25_685">
<rect width="20" height="20" fill="white"/>
</clipPath>
</defs>
</svg>
