<svg width="23" height="20" viewBox="0 0 23 20" fill="none" xmlns="http://www.w3.org/2000/svg">
<g clip-path="url(#clip0_25_797)">
<path d="M5.625 18.75C2.51953 18.75 0 16.2305 0 13.125C0 10.6484 1.60156 8.54688 3.82422 7.79297C3.77344 7.49219 3.75 7.1875 3.75 6.875C3.75 3.76953 6.26953 1.25 9.375 1.25C11.5391 1.25 13.418 2.47266 14.3594 4.26172C14.9141 3.9375 15.5625 3.75 16.25 3.75C18.3203 3.75 20 5.42969 20 7.5C20 8.11328 19.8516 8.69531 19.5898 9.20703C21.3086 10 22.5 11.7344 22.5 13.75C22.5 16.5117 20.2617 18.75 17.5 18.75H5.625ZM11.9141 7.46094C11.5469 7.09375 10.9531 7.09375 10.5898 7.46094L7.77734 10.2734C7.41016 10.6406 7.41016 11.2344 7.77734 11.5977C8.14453 11.9609 8.73828 11.9648 9.10156 11.5977L10.3125 10.3867V14.375C10.3125 14.8945 10.7305 15.3125 11.25 15.3125C11.7695 15.3125 12.1875 14.8945 12.1875 14.375V10.3867L13.3984 11.5977C13.7656 11.9648 14.3594 11.9648 14.7227 11.5977C15.0859 11.2305 15.0898 10.6367 14.7227 10.2734L11.9102 7.46094H11.9141Z" fill="#F0869D"/>
</g>
<defs>
<clipPath id="clip0_25_797">
<rect width="22.5" height="20" fill="white"/>
</clipPath>
</defs>
</svg>
