<svg width="25" height="20" viewBox="0 0 25 20" fill="none" xmlns="http://www.w3.org/2000/svg">
<path d="M22.5 5C22.5 3.62109 21.3789 2.5 20 2.5H8.01953C7.35547 2.5 6.71875 2.76172 6.25 3.23047L0.367188 9.11719C0.132812 9.35156 0 9.66797 0 10C0 10.332 0.132812 10.6484 0.367188 10.8828L6.25 16.7695C6.71875 17.2383 7.35547 17.5 8.01953 17.5H20C21.3789 17.5 22.5 16.3789 22.5 15V5ZM11.0977 7.34766C11.4648 6.98047 12.0586 6.98047 12.4219 7.34766L13.7461 8.67188L15.0703 7.34766C15.4375 6.98047 16.0312 6.98047 16.3945 7.34766C16.7578 7.71484 16.7617 8.30859 16.3945 8.67188L15.0703 9.99609L16.3945 11.3203C16.7617 11.6875 16.7617 12.2812 16.3945 12.6445C16.0273 13.0078 15.4336 13.0117 15.0703 12.6445L13.7461 11.3203L12.4219 12.6445C12.0547 13.0117 11.4609 13.0117 11.0977 12.6445C10.7344 12.2773 10.7305 11.6836 11.0977 11.3203L12.4219 9.99609L11.0977 8.67188C10.7305 8.30469 10.7305 7.71094 11.0977 7.34766Z" fill="#F0869D"/>
</svg>
