<svg width="25" height="20" viewBox="0 0 25 20" fill="none" xmlns="http://www.w3.org/2000/svg">
<path d="M12.5078 4.375C14.2344 4.375 15.6328 2.97656 15.6328 1.25H17.7227C18.3867 1.25 19.0234 1.51172 19.4922 1.98047L24.125 6.61719C24.6133 7.10547 24.6133 7.89844 24.125 8.38672L22.1445 10.3672C21.6562 10.8555 20.8633 10.8555 20.375 10.3672L18.7578 8.75V17.5C18.7578 18.8789 17.6367 20 16.2578 20H8.75781C7.37891 20 6.25781 18.8789 6.25781 17.5V8.75L4.64062 10.3672C4.15234 10.8555 3.35938 10.8555 2.87109 10.3672L0.894531 8.38281C0.40625 7.89453 0.40625 7.10156 0.894531 6.61328L5.52734 1.98047C5.99609 1.51172 6.63281 1.25 7.29688 1.25H9.38672C9.38672 2.97656 10.7852 4.375 12.5117 4.375H12.5078Z" fill="#F0869D"/>
</svg>
