<svg width="15" height="20" viewBox="0 0 15 20" fill="none" xmlns="http://www.w3.org/2000/svg">
<g clip-path="url(#clip0_25_730)">
<path d="M-2.32831e-10 7.36719C-2.32831e-10 3.29688 3.35938 0 7.5 0C11.6406 0 15 3.29688 15 7.36719C15 12.0273 10.3047 17.6133 8.34375 19.7422C7.88281 20.2422 7.11328 20.2422 6.65234 19.7422C4.69141 17.6133 -0.00390625 12.0273 -0.00390625 7.36719H-2.32831e-10ZM7.5 10C8.16304 10 8.79893 9.73661 9.26777 9.26777C9.73661 8.79893 10 8.16304 10 7.5C10 6.83696 9.73661 6.20107 9.26777 5.73223C8.79893 5.26339 8.16304 5 7.5 5C6.83696 5 6.20107 5.26339 5.73223 5.73223C5.26339 6.20107 5 6.83696 5 7.5C5 8.16304 5.26339 8.79893 5.73223 9.26777C6.20107 9.73661 6.83696 10 7.5 10Z" fill="#F0869D"/>
</g>
<defs>
<clipPath id="clip0_25_730">
<rect width="15" height="20" fill="white"/>
</clipPath>
</defs>
</svg>
