<svg width="20" height="20" viewBox="0 0 20 20" fill="none" xmlns="http://www.w3.org/2000/svg">
<g clip-path="url(#clip0_25_762)">
<path d="M9.99983 0C10.574 0 11.1014 0.316406 11.3748 0.820312L19.8123 16.4453C20.0741 16.9297 20.0623 17.5156 19.7811 17.9883C19.4998 18.4609 18.9881 18.75 18.4373 18.75H1.56233C1.01155 18.75 0.49983 18.4609 0.21858 17.9883C-0.0626695 17.5156 -0.0743883 16.9297 0.18733 16.4453L8.62483 0.820312C8.89827 0.316406 9.42561 0 9.99983 0ZM9.99983 13.75C9.66831 13.75 9.35037 13.8817 9.11595 14.1161C8.88153 14.3505 8.74983 14.6685 8.74983 15C8.74983 15.3315 8.88153 15.6495 9.11595 15.8839C9.35037 16.1183 9.66831 16.25 9.99983 16.25C10.3314 16.25 10.6493 16.1183 10.8837 15.8839C11.1181 15.6495 11.2498 15.3315 11.2498 15C11.2498 14.6685 11.1181 14.3505 10.8837 14.1161C10.6493 13.8817 10.3314 13.75 9.99983 13.75ZM9.99983 6.25C9.28889 6.25 8.72249 6.85547 8.77327 7.56641L9.06233 11.6289C9.09749 12.1172 9.50764 12.5 9.99592 12.5C10.4881 12.5 10.8944 12.1211 10.9295 11.6289L11.2186 7.56641C11.2694 6.85547 10.7069 6.25 9.99202 6.25H9.99983Z" fill="#F0869D"/>
</g>
<defs>
<clipPath id="clip0_25_762">
<rect width="20" height="20" fill="white"/>
</clipPath>
</defs>
</svg>
