<svg width="23" height="20" viewBox="0 0 23 20" fill="none" xmlns="http://www.w3.org/2000/svg">
<g clip-path="url(#clip0_25_722)">
<path d="M5.625 18.75C2.51953 18.75 0 16.2305 0 13.125C0 10.6484 1.60156 8.54688 3.82422 7.79297C3.77344 7.49219 3.75 7.1875 3.75 6.875C3.75 3.76953 6.26953 1.25 9.375 1.25C11.5391 1.25 13.418 2.47266 14.3594 4.26172C14.9141 3.9375 15.5625 3.75 16.25 3.75C18.3203 3.75 20 5.42969 20 7.5C20 8.11328 19.8516 8.69531 19.5898 9.20703C21.3086 10 22.5 11.7344 22.5 13.75C22.5 16.5117 20.2617 18.75 17.5 18.75H5.625ZM14.7266 12.2266C15.0938 11.8594 15.0938 11.2656 14.7266 10.9023C14.3594 10.5391 13.7656 10.5352 13.4023 10.9023L12.1914 12.1133V8.125C12.1914 7.60547 11.7734 7.1875 11.2539 7.1875C10.7344 7.1875 10.3164 7.60547 10.3164 8.125V12.1133L9.10547 10.9023C8.73828 10.5352 8.14453 10.5352 7.78125 10.9023C7.41797 11.2695 7.41406 11.8633 7.78125 12.2266L10.5938 15.0391C10.9609 15.4062 11.5547 15.4062 11.918 15.0391L14.7305 12.2266H14.7266Z" fill="#F0869D"/>
</g>
<defs>
<clipPath id="clip0_25_722">
<rect width="22.5" height="20" fill="white"/>
</clipPath>
</defs>
</svg>
