<svg width="20" height="20" viewBox="0 0 20 20" fill="none" xmlns="http://www.w3.org/2000/svg">
<g clip-path="url(#clip0_25_704)">
<path d="M8.77344 0.5C10.9688 -1.69531 14.5313 -1.69531 16.7266 0.5C18.9219 2.69531 18.9219 6.25781 16.7266 8.45312L10.3203 14.8594C8.97656 16.2031 6.80078 16.2031 5.45703 14.8594C4.11328 13.5156 4.11328 11.3398 5.45703 9.99609L11.4258 4.03516C11.9141 3.54688 12.707 3.54688 13.1953 4.03516C13.6836 4.52344 13.6836 5.31641 13.1953 5.80469L7.22656 11.7695C6.85938 12.1367 6.85938 12.7305 7.22656 13.0938C7.59375 13.457 8.1875 13.4609 8.55078 13.0938L14.957 6.6875C16.1758 5.46875 16.1758 3.48828 14.957 2.26953C13.7383 1.05078 11.7578 1.05078 10.5391 2.26953L4.13281 8.67578C2.05859 10.75 2.05859 14.1133 4.13281 16.1875C6.20703 18.2617 9.57031 18.2617 11.6445 16.1875L16.7305 11.1055C17.2188 10.6172 18.0117 10.6172 18.5 11.1055C18.9883 11.5938 18.9883 12.3867 18.5 12.875L13.4141 17.9531C10.3633 21.0039 5.41797 21.0039 2.36719 17.9531C-0.683594 14.9023 -0.683594 9.95703 2.36719 6.90625L8.77344 0.5Z" fill="#F0869D"/>
</g>
<defs>
<clipPath id="clip0_25_704">
<rect width="20" height="20" fill="white"/>
</clipPath>
</defs>
</svg>
