<svg width="20" height="20" viewBox="0 0 20 20" fill="none" xmlns="http://www.w3.org/2000/svg">
<g clip-path="url(#clip0_25_796)">
<path d="M10 20C7.34784 20 4.8043 18.9464 2.92893 17.0711C1.05357 15.1957 0 12.6522 0 10C0 7.34784 1.05357 4.8043 2.92893 2.92893C4.8043 1.05357 7.34784 0 10 0C12.6522 0 15.1957 1.05357 17.0711 2.92893C18.9464 4.8043 20 7.34784 20 10C20 12.6522 18.9464 15.1957 17.0711 17.0711C15.1957 18.9464 12.6522 20 10 20ZM14.6094 5.69141C14.1914 5.38672 13.6055 5.48047 13.3008 5.89844L8.63672 12.3125L6.60156 10.2773C6.23438 9.91016 5.64063 9.91016 5.27734 10.2773C4.91406 10.6445 4.91016 11.2383 5.27734 11.6016L8.08984 14.4141C8.28516 14.6094 8.55078 14.707 8.82422 14.6875C9.09766 14.668 9.34766 14.5273 9.50781 14.3047L14.8164 7C15.1211 6.58203 15.0273 5.99609 14.6094 5.69141Z" fill="#F0869D"/>
</g>
<defs>
<clipPath id="clip0_25_796">
<rect width="20" height="20" fill="white"/>
</clipPath>
</defs>
</svg>
