<svg width="20" height="20" viewBox="0 0 20 20" fill="none" xmlns="http://www.w3.org/2000/svg">
<g clip-path="url(#clip0_25_702)">
<path d="M15.4839 0.647217C16.5524 0.647217 17.4194 1.51415 17.4194 2.5827C17.4194 2.83673 17.3669 3.07464 17.2823 3.29641C18.1048 3.51818 18.7097 4.26818 18.7097 5.16335C18.7097 5.53028 18.6048 5.87302 18.4274 6.16738C19.3226 6.33673 20 7.12302 20 8.06657C20 8.86093 19.5202 9.54238 18.8347 9.84076C19.5202 10.1392 20 10.8206 20 11.615C20 12.6835 19.1331 13.5504 18.0645 13.5504H11.6129L12.75 16.3892C12.8508 16.6432 12.9032 16.9174 12.9032 17.1916V17.3609C12.9032 18.4617 12.0121 19.3529 10.9113 19.3529C10.1573 19.3529 9.46774 18.9254 9.12903 18.2521L6.85887 13.7238C6.58871 13.1875 6.45161 12.5948 6.45161 11.994V4.4698C6.45161 3.68754 6.81048 2.9456 7.41935 2.45367L7.91129 2.06254C9.05645 1.14722 10.4758 0.647217 11.9395 0.647217H15.4839ZM3.22581 3.22786C3.93952 3.22786 4.51613 3.80447 4.51613 4.51818V14.8408C4.51613 15.5545 3.93952 16.1311 3.22581 16.1311H1.29032C0.576613 16.1311 0 15.5545 0 14.8408V4.51818C0 3.80447 0.576613 3.22786 1.29032 3.22786H3.22581Z" fill="#F0869D"/>
</g>
<defs>
<clipPath id="clip0_25_702">
<rect width="20" height="20" fill="white"/>
</clipPath>
</defs>
</svg>
