<svg width="25" height="20" viewBox="0 0 25 20" fill="none" xmlns="http://www.w3.org/2000/svg">
<g clip-path="url(#clip0_25_770)">
<path d="M15 1.25H20C20.6914 1.25 21.25 1.80859 21.25 2.5C21.25 3.19141 20.6914 3.75 20 3.75H15.5625C15.3594 4.75781 14.668 5.58984 13.75 5.98828V17.5H20C20.6914 17.5 21.25 18.0586 21.25 18.75C21.25 19.4414 20.6914 20 20 20H5.00003C4.30862 20 3.75003 19.4414 3.75003 18.75C3.75003 18.0586 4.30862 17.5 5.00003 17.5H11.25V5.98828C10.3321 5.58594 9.64065 4.75391 9.43753 3.75H5.00003C4.30862 3.75 3.75003 3.19141 3.75003 2.5C3.75003 1.80859 4.30862 1.25 5.00003 1.25H10C10.5703 0.492188 11.4766 0 12.5 0C13.5235 0 14.4297 0.492188 15 1.25ZM17.1719 12.5H22.8282L20 7.64844L17.1719 12.5ZM20 16.25C17.543 16.25 15.5 14.9219 15.0782 13.168C14.9766 12.7383 15.1172 12.2969 15.3399 11.9141L19.0586 5.53906C19.2539 5.20312 19.6133 5 20 5C20.3867 5 20.7461 5.20703 20.9414 5.53906L24.6602 11.9141C24.8828 12.2969 25.0235 12.7383 24.9219 13.168C24.5 14.918 22.4571 16.25 20 16.25ZM4.95315 7.64844L2.12503 12.5H7.78519L4.95315 7.64844ZM0.0351854 13.168C-0.0663771 12.7383 0.0742479 12.2969 0.296904 11.9141L4.01565 5.53906C4.21097 5.20312 4.57034 5 4.95706 5C5.34378 5 5.70315 5.20703 5.89847 5.53906L9.61722 11.9141C9.83987 12.2969 9.9805 12.7383 9.87893 13.168C9.45706 14.918 7.41409 16.25 4.95706 16.25C2.50003 16.25 0.45706 14.9219 0.0351854 13.168Z" fill="#F0869D"/>
</g>
<defs>
<clipPath id="clip0_25_770">
<rect width="25" height="20" fill="white"/>
</clipPath>
</defs>
</svg>
