<svg width="23" height="20" viewBox="0 0 23 20" fill="none" xmlns="http://www.w3.org/2000/svg">
<g clip-path="url(#clip0_25_774)">
<path d="M2.5 0C1.12109 0 0 1.12109 0 2.5V5.3125C0 5.83203 0.417969 6.25 0.9375 6.25C1.45703 6.25 1.875 5.83203 1.875 5.3125V2.5C1.875 2.15625 2.15625 1.875 2.5 1.875H5.3125C5.83203 1.875 6.25 1.45703 6.25 0.9375C6.25 0.417969 5.83203 0 5.3125 0H2.5ZM17.1875 0C16.668 0 16.25 0.417969 16.25 0.9375C16.25 1.45703 16.668 1.875 17.1875 1.875H20C20.3438 1.875 20.625 2.15625 20.625 2.5V5.3125C20.625 5.83203 21.043 6.25 21.5625 6.25C22.082 6.25 22.5 5.83203 22.5 5.3125V2.5C22.5 1.12109 21.3789 0 20 0H17.1875ZM1.875 14.6875C1.875 14.168 1.45703 13.75 0.9375 13.75C0.417969 13.75 0 14.168 0 14.6875V17.5C0 18.8789 1.12109 20 2.5 20H5.3125C5.83203 20 6.25 19.582 6.25 19.0625C6.25 18.543 5.83203 18.125 5.3125 18.125H2.5C2.15625 18.125 1.875 17.8438 1.875 17.5V14.6875ZM22.5 14.6875C22.5 14.168 22.082 13.75 21.5625 13.75C21.043 13.75 20.625 14.168 20.625 14.6875V17.5C20.625 17.8438 20.3438 18.125 20 18.125H17.1875C16.668 18.125 16.25 18.543 16.25 19.0625C16.25 19.582 16.668 20 17.1875 20H20C21.3789 20 22.5 18.8789 22.5 17.5V14.6875ZM11.25 8.4375C11.5373 8.4375 11.8217 8.38092 12.0871 8.27099C12.3525 8.16105 12.5937 7.99992 12.7968 7.7968C12.9999 7.59367 13.1611 7.35252 13.271 7.08712C13.3809 6.82172 13.4375 6.53727 13.4375 6.25C13.4375 5.96273 13.3809 5.67828 13.271 5.41288C13.1611 5.14748 12.9999 4.90633 12.7968 4.7032C12.5937 4.50008 12.3525 4.33895 12.0871 4.22901C11.8217 4.11908 11.5373 4.0625 11.25 4.0625C10.9627 4.0625 10.6783 4.11908 10.4129 4.22901C10.1475 4.33895 9.90633 4.50008 9.7032 4.7032C9.50008 4.90633 9.33895 5.14748 9.22901 5.41288C9.11908 5.67828 9.0625 5.96273 9.0625 6.25C9.0625 6.53727 9.11908 6.82172 9.22901 7.08712C9.33895 7.35252 9.50008 7.59367 9.7032 7.7968C9.90633 7.99992 10.1475 8.16105 10.4129 8.27099C10.6783 8.38092 10.9627 8.4375 11.25 8.4375ZM11.25 10C9.17969 10 7.5 11.6797 7.5 13.75V14.6875C7.5 15.207 7.91797 15.625 8.4375 15.625H14.0625C14.582 15.625 15 15.207 15 14.6875V13.75C15 11.6797 13.3203 10 11.25 10ZM18.75 7.5C18.75 7.00272 18.5525 6.52581 18.2008 6.17417C17.8492 5.82254 17.3723 5.625 16.875 5.625C16.3777 5.625 15.9008 5.82254 15.5492 6.17417C15.1975 6.52581 15 7.00272 15 7.5C15 7.99728 15.1975 8.47419 15.5492 8.82583C15.9008 9.17746 16.3777 9.375 16.875 9.375C17.3723 9.375 17.8492 9.17746 18.2008 8.82583C18.5525 8.47419 18.75 7.99728 18.75 7.5ZM6.5625 10.6367C4.63672 10.7969 3.125 12.4062 3.125 14.375V14.793C3.125 15.2539 3.5 15.625 3.95703 15.625H5.78516C5.67969 15.332 5.625 15.0156 5.625 14.6875V13.75C5.625 12.5977 5.96875 11.5273 6.5625 10.6367ZM16.7148 15.625H18.543C19.0039 15.625 19.375 15.25 19.375 14.793V14.375C19.375 12.4102 17.8633 10.7969 15.9375 10.6367C16.5312 11.5273 16.875 12.5977 16.875 13.75V14.6875C16.875 15.0156 16.8203 15.332 16.7148 15.625ZM7.5 7.5C7.5 7.00272 7.30246 6.52581 6.95083 6.17417C6.59919 5.82254 6.12228 5.625 5.625 5.625C5.12772 5.625 4.65081 5.82254 4.29917 6.17417C3.94754 6.52581 3.75 7.00272 3.75 7.5C3.75 7.99728 3.94754 8.47419 4.29917 8.82583C4.65081 9.17746 5.12772 9.375 5.625 9.375C6.12228 9.375 6.59919 9.17746 6.95083 8.82583C7.30246 8.47419 7.5 7.99728 7.5 7.5Z" fill="#F0869D"/>
</g>
<defs>
<clipPath id="clip0_25_774">
<rect width="22.5" height="20" fill="white"/>
</clipPath>
</defs>
</svg>
