<svg width="20" height="20" viewBox="0 0 20 20" fill="none" xmlns="http://www.w3.org/2000/svg">
<g clip-path="url(#clip0_25_720)">
<path d="M19.7031 5.17578C19.5273 5.58594 18.9844 5.55859 18.7305 5.19141C17.6445 3.62891 16.1484 2.37109 14.3945 1.57422C13.9883 1.39063 13.8594 0.859375 14.2344 0.613281C14.8203 0.226563 15.5234 0 16.2773 0C18.332 0 19.9961 1.66406 19.9961 3.71875C19.9961 4.23438 19.8906 4.72656 19.6992 5.17578H19.7031ZM1.26953 5.19141C1.01562 5.55859 0.46875 5.58594 0.296875 5.17578C0.105469 4.72656 0 4.23438 0 3.71875C0 1.66406 1.66406 0 3.71875 0C4.47266 0 5.17578 0.226563 5.76172 0.613281C6.13672 0.859375 6.00781 1.39063 5.60156 1.57422C3.85156 2.37109 2.35547 3.62891 1.26562 5.19141H1.26953ZM15.2422 18.2578C13.7812 19.3516 11.9648 20 10 20C8.03516 20 6.21875 19.3516 4.76172 18.2578L3.38281 19.6328C2.89453 20.1211 2.10156 20.1211 1.61328 19.6328C1.125 19.1445 1.125 18.3516 1.61328 17.8633L2.98828 16.4883C1.89844 15.0313 1.25 13.2148 1.25 11.25C1.25 6.41797 5.16797 2.5 10 2.5C14.832 2.5 18.75 6.41797 18.75 11.25C18.75 13.2148 18.1016 15.0313 17.0078 16.4922L18.3828 17.8672C18.8711 18.3555 18.8711 19.1484 18.3828 19.6367C17.8945 20.125 17.1016 20.125 16.6133 19.6367L15.2383 18.2617L15.2422 18.2578ZM10.9375 7.1875C10.9375 6.66797 10.5195 6.25 10 6.25C9.48047 6.25 9.0625 6.66797 9.0625 7.1875V11.25C9.0625 11.5 9.16016 11.7383 9.33594 11.9141L11.5234 14.1016C11.8906 14.4688 12.4844 14.4688 12.8477 14.1016C13.2109 13.7344 13.2148 13.1406 12.8477 12.7773L10.9336 10.8633V7.1875H10.9375Z" fill="#F0869D"/>
</g>
<defs>
<clipPath id="clip0_25_720">
<rect width="20" height="20" fill="white"/>
</clipPath>
</defs>
</svg>
