<svg width="20" height="20" viewBox="0 0 20 20" fill="none" xmlns="http://www.w3.org/2000/svg">
<g clip-path="url(#clip0_25_733)">
<path d="M6.25781 0.976549C5.94922 0.238268 5.14453 -0.152357 4.3789 0.0546744L4.16406 0.113268C1.64062 0.800768 -0.515628 3.24608 0.113278 6.22264C1.5625 13.0586 6.9414 18.4375 13.7773 19.8867C16.7578 20.5195 19.1992 18.3594 19.8867 15.8359L19.9453 15.6211C20.1562 14.8515 19.7617 14.0469 19.0273 13.7422L15.2266 12.1601C14.582 11.8906 13.8359 12.0781 13.3906 12.6211L11.8828 14.4648C9.13672 13.1015 6.92578 10.8203 5.65625 8.01952L7.38281 6.61327C7.92578 6.17186 8.10937 5.42577 7.84375 4.77733L6.25781 0.976549Z" fill="#F0869D"/>
</g>
<defs>
<clipPath id="clip0_25_733">
<rect width="20" height="20" fill="white"/>
</clipPath>
</defs>
</svg>
