<svg width="20" height="20" viewBox="0 0 20 20" fill="none" xmlns="http://www.w3.org/2000/svg">
<g clip-path="url(#clip0_25_742)">
<path d="M17.4844 6.83594C16.25 3.92188 13.3633 1.875 10 1.875C9.13672 1.875 8.30469 2.01172 7.52344 2.25781C7.50781 2.33594 7.5 2.41797 7.5 2.5V5.36719C7.5 5.85547 7.89453 6.25 8.38281 6.25C8.61719 6.25 8.84375 6.15625 9.00781 5.99219L9.63281 5.36719C9.86719 5.13281 10.1836 5 10.5156 5H10.7305C11.8438 5 12.4023 6.34766 11.6133 7.13281C11.3789 7.36719 11.0625 7.5 10.7305 7.5H8.32812C7.99609 7.5 7.67969 7.63281 7.44531 7.86719L6.61328 8.69922C6.37891 8.93359 6.24609 9.25 6.24609 9.58203V11.25C6.24609 11.9414 6.80469 12.5 7.49609 12.5H8.74609C9.4375 12.5 9.99609 13.0586 9.99609 13.75V15C9.99609 15.6914 10.5547 16.25 11.2461 16.25H11.3516C11.6836 16.25 12 16.1172 12.2344 15.8828L13.3789 14.7383C13.6133 14.5039 13.7461 14.1875 13.7461 13.8555V13.125C13.7461 12.7812 14.0273 12.5 14.3711 12.5C14.7148 12.5 14.9961 12.2188 14.9961 11.875V10.5195C14.9961 10.1875 14.8633 9.87109 14.6289 9.63672L14.0039 9.01172C13.8398 8.84766 13.7461 8.62109 13.7461 8.38672C13.7461 7.89844 14.1406 7.50391 14.6289 7.50391H16.3867C16.8711 7.50391 17.2734 7.22656 17.4805 6.83984L17.4844 6.83594ZM0 10C0 7.34784 1.05357 4.8043 2.92893 2.92893C4.8043 1.05357 7.34784 0 10 0C12.6522 0 15.1957 1.05357 17.0711 2.92893C18.9464 4.8043 20 7.34784 20 10C20 12.6522 18.9464 15.1957 17.0711 17.0711C15.1957 18.9464 12.6522 20 10 20C7.34784 20 4.8043 18.9464 2.92893 17.0711C1.05357 15.1957 0 12.6522 0 10Z" fill="#F0869D"/>
</g>
<defs>
<clipPath id="clip0_25_742">
<rect width="20" height="20" fill="white"/>
</clipPath>
</defs>
</svg>
