<svg width="20" height="20" viewBox="0 0 20 20" fill="none" xmlns="http://www.w3.org/2000/svg">
<path d="M2.5 2.5C1.12109 2.5 0 3.62109 0 5V15C0 16.3789 1.12109 17.5 2.5 17.5H17.5C18.8789 17.5 20 16.3789 20 15V5C20 3.62109 18.8789 2.5 17.5 2.5H2.5ZM10 5.625C11.1603 5.625 12.2731 6.08594 13.0936 6.90641C13.9141 7.72688 14.375 8.83968 14.375 10C14.375 11.1603 13.9141 12.2731 13.0936 13.0936C12.2731 13.9141 11.1603 14.375 10 14.375C8.83968 14.375 7.72688 13.9141 6.90641 13.0936C6.08594 12.2731 5.625 11.1603 5.625 10C5.625 8.83968 6.08594 7.72688 6.90641 6.90641C7.72688 6.08594 8.83968 5.625 10 5.625ZM2.5 7.1875V5.3125C2.5 5.14062 2.64062 5 2.8125 5H4.6875C4.85938 5 5.00391 5.14062 4.98047 5.3125C4.83984 6.44531 3.94141 7.33984 2.8125 7.48047C2.64062 7.5 2.5 7.35938 2.5 7.1875ZM2.5 12.8125C2.5 12.6406 2.64062 12.4961 2.8125 12.5195C3.94531 12.6602 4.83984 13.5586 4.98047 14.6875C5 14.8594 4.85938 15 4.6875 15H2.8125C2.64062 15 2.5 14.8594 2.5 14.6875V12.8125ZM17.1875 7.48047C16.0547 7.33984 15.1602 6.44141 15.0195 5.3125C15 5.14062 15.1406 5 15.3125 5H17.1875C17.3594 5 17.5 5.14062 17.5 5.3125V7.1875C17.5 7.35938 17.3594 7.50391 17.1875 7.48047ZM17.5 12.8125V14.6875C17.5 14.8594 17.3594 15 17.1875 15H15.3125C15.1406 15 14.9961 14.8594 15.0195 14.6875C15.1602 13.5547 16.0586 12.6602 17.1875 12.5195C17.3594 12.5 17.5 12.6406 17.5 12.8125ZM9.375 7.34375C8.94531 7.34375 8.59375 7.69531 8.59375 8.125C8.59375 8.50391 8.86328 8.81641 9.21875 8.89062V10.7812H9.0625C8.63281 10.7812 8.28125 11.1328 8.28125 11.5625C8.28125 11.9922 8.63281 12.3438 9.0625 12.3438H10.9375C11.3672 12.3438 11.7188 11.9922 11.7188 11.5625C11.7188 11.1328 11.3672 10.7812 10.9375 10.7812H10.7812V8.125C10.7812 7.69531 10.4297 7.34375 10 7.34375H9.375Z" fill="#F0869D"/>
</svg>
