<svg width="20" height="20" viewBox="0 0 20 20" fill="none" xmlns="http://www.w3.org/2000/svg">
<g clip-path="url(#clip0_25_703)">
<path d="M9.41406 3.40234L10 4.21094L10.5859 3.40234C11.5625 2.05078 13.1328 1.25 14.8008 1.25C17.6719 1.25 20 3.57813 20 6.44922V6.55078C20 10.9336 14.5352 16.0234 11.6836 18.1992C11.1992 18.5664 10.6055 18.75 10 18.75C9.39453 18.75 8.79688 18.5703 8.31641 18.1992C5.46484 16.0234 0 10.9336 0 6.55078V6.44922C0 3.57813 2.32813 1.25 5.19922 1.25C6.86719 1.25 8.4375 2.05078 9.41406 3.40234Z" fill="#F0869D"/>
</g>
<defs>
<clipPath id="clip0_25_703">
<rect width="20" height="20" fill="white"/>
</clipPath>
</defs>
</svg>
