<svg width="23" height="20" viewBox="0 0 23 20" fill="none" xmlns="http://www.w3.org/2000/svg">
<g clip-path="url(#clip0_25_736)">
<path d="M20.9531 -1.02735C21.3359 -1.16407 21.7578 -1.06641 22.0469 -0.781254C22.3359 -0.496097 22.4297 -0.0703161 22.293 0.312496L15.3398 19.7227C15.1445 20.2656 14.6328 20.625 14.0586 20.625C13.5039 20.625 13.0039 20.2891 12.7969 19.7773L10.2891 13.6055C10.1133 13.1758 10.1914 12.6836 10.4922 12.332L14.1836 7.9414C14.3828 7.70312 14.3672 7.35546 14.1484 7.13671C13.9297 6.91796 13.5781 6.90234 13.3437 7.10156L8.95312 10.7852C8.59766 11.082 8.10938 11.1602 7.67969 10.9883L1.48828 8.46875C0.976562 8.26171 0.640625 7.76171 0.640625 7.20703C0.640625 6.63281 1 6.12109 1.54297 5.92578L20.9531 -1.02735Z" fill="#F0869D"/>
</g>
<defs>
<clipPath id="clip0_25_736">
<rect width="22.5" height="20" fill="white"/>
</clipPath>
</defs>
</svg>
