<svg width="20" height="20" viewBox="0 0 20 20" fill="none" xmlns="http://www.w3.org/2000/svg">
<g clip-path="url(#clip0_25_788)">
<path d="M3.22581 6.45171C3.93952 6.45171 4.51613 7.02833 4.51613 7.74204V18.0646C4.51613 18.7783 3.93952 19.3549 3.22581 19.3549H1.29032C0.576613 19.3549 0 18.7783 0 18.0646V7.74204C0 7.02833 0.576613 6.45171 1.29032 6.45171H3.22581ZM10.9113 0.645264C12.0121 0.645264 12.9032 1.53639 12.9032 2.6372V2.80655C12.9032 3.08075 12.8508 3.35494 12.75 3.60897L11.6129 6.45171H18.0645C19.1331 6.45171 20 7.31865 20 8.3872C20 9.18155 19.5202 9.86301 18.8347 10.1614C19.5202 10.4598 20 11.1412 20 11.9356C20 12.8791 19.3226 13.6654 18.4274 13.8348C18.6048 14.1291 18.7097 14.4719 18.7097 14.8388C18.7097 15.734 18.1048 16.484 17.2823 16.7057C17.371 16.9275 17.4194 17.1695 17.4194 17.4195C17.4194 18.488 16.5524 19.3549 15.4839 19.3549H11.9395C10.4758 19.3549 9.05242 18.8549 7.91129 17.9396L7.41935 17.5485C6.80645 17.0606 6.45161 16.3187 6.45161 15.5324V8.00817C6.45161 7.40736 6.59274 6.81462 6.85887 6.27833L9.125 1.74607C9.46371 1.07268 10.1532 0.645264 10.9113 0.645264Z" fill="#F0869D"/>
</g>
<defs>
<clipPath id="clip0_25_788">
<rect width="20" height="20" fill="white"/>
</clipPath>
</defs>
</svg>
