<svg width="15" height="20" viewBox="0 0 15 20" fill="none" xmlns="http://www.w3.org/2000/svg">
<g clip-path="url(#clip0_25_706)">
<path d="M0 2.5C0 1.12109 1.12109 0 2.5 0H12.5C13.8789 0 15 1.12109 15 2.5V17.5C15 18.8789 13.8789 20 12.5 20H2.5C1.12109 20 0 18.8789 0 17.5V2.5ZM3.75 15.9375C3.75 16.457 4.16797 16.875 4.6875 16.875H10.3125C10.832 16.875 11.25 16.457 11.25 15.9375C11.25 15.418 10.832 15 10.3125 15H4.6875C4.16797 15 3.75 15.418 3.75 15.9375ZM10.8828 8.125C10.6953 9.15625 10.043 10.0273 9.15625 10.5156C9.41797 9.85156 9.59375 9.03125 9.64844 8.125H10.8828ZM4.12109 8.125H5.35547C5.41016 9.02734 5.58984 9.85156 5.84766 10.5156C4.96094 10.0273 4.30859 9.15625 4.12109 8.125ZM7.10547 10.2734C6.86328 9.75 6.67187 9.00391 6.60937 8.125H8.39844C8.33594 9.00391 8.14453 9.75 7.90234 10.2734C7.72656 10.6484 7.58203 10.8125 7.50391 10.8789C7.42578 10.8125 7.28125 10.6523 7.10547 10.2734ZM7.10547 4.72656C7.28125 4.35156 7.42578 4.1875 7.50391 4.12109C7.58203 4.1875 7.72656 4.34766 7.90234 4.72656C8.14453 5.25 8.33594 5.99609 8.39844 6.875H6.60937C6.67187 5.99609 6.86328 5.25 7.10547 4.72656ZM10.8828 6.875H9.64844C9.59375 5.97266 9.41406 5.14844 9.15625 4.48437C10.043 4.97266 10.6953 5.84375 10.8828 6.875ZM5.35156 6.875H4.11719C4.30469 5.84375 4.95703 4.97266 5.84375 4.48437C5.58203 5.14844 5.40625 5.96875 5.35156 6.875ZM12.5 7.5C12.5 6.17392 11.9732 4.90215 11.0355 3.96447C10.0979 3.02678 8.82608 2.5 7.5 2.5C6.17392 2.5 4.90215 3.02678 3.96447 3.96447C3.02678 4.90215 2.5 6.17392 2.5 7.5C2.5 8.82608 3.02678 10.0979 3.96447 11.0355C4.90215 11.9732 6.17392 12.5 7.5 12.5C8.82608 12.5 10.0979 11.9732 11.0355 11.0355C11.9732 10.0979 12.5 8.82608 12.5 7.5Z" fill="#F0869D"/>
</g>
<defs>
<clipPath id="clip0_25_706">
<rect width="15" height="20" fill="white"/>
</clipPath>
</defs>
</svg>
