<svg width="20" height="20" viewBox="0 0 20 20" fill="none" xmlns="http://www.w3.org/2000/svg">
<g clip-path="url(#clip0_25_766)">
<path d="M10.7813 0.922749C10.6322 0.63193 10.3305 0.446533 10.0033 0.446533C9.67615 0.446533 9.37442 0.63193 9.22538 0.922749L6.54985 6.16476L0.737108 7.08811C0.413572 7.139 0.144565 7.36802 0.0427784 7.68065C-0.0590082 7.99328 0.0246022 8.33499 0.253622 8.56765L4.41233 12.73L3.49625 18.5427C3.44536 18.8663 3.57986 19.1934 3.84523 19.3861C4.1106 19.5788 4.45959 19.6079 4.75404 19.4588L10.0033 16.7905L15.249 19.4588C15.5398 19.6079 15.8924 19.5788 16.1578 19.3861C16.4231 19.1934 16.5576 18.8699 16.5068 18.5427L15.587 12.73L19.7457 8.56765C19.9784 8.33499 20.0584 7.99328 19.9566 7.68065C19.8548 7.36802 19.5894 7.139 19.2623 7.08811L13.4532 6.16476L10.7813 0.922749Z" fill="#F0869D"/>
</g>
<defs>
<clipPath id="clip0_25_766">
<rect width="20" height="20" fill="white"/>
</clipPath>
</defs>
</svg>
