<svg width="20" height="20" viewBox="0 0 20 20" fill="none" xmlns="http://www.w3.org/2000/svg">
<g clip-path="url(#clip0_25_790)">
<path d="M7.5 3.125C7.5 2.08984 8.33984 1.25 9.375 1.25H10.625C11.6602 1.25 12.5 2.08984 12.5 3.125V16.875C12.5 17.9102 11.6602 18.75 10.625 18.75H9.375C8.33984 18.75 7.5 17.9102 7.5 16.875V3.125ZM0 10.625C0 9.58984 0.839844 8.75 1.875 8.75H3.125C4.16016 8.75 5 9.58984 5 10.625V16.875C5 17.9102 4.16016 18.75 3.125 18.75H1.875C0.839844 18.75 0 17.9102 0 16.875V10.625ZM16.875 3.75H18.125C19.1602 3.75 20 4.58984 20 5.625V16.875C20 17.9102 19.1602 18.75 18.125 18.75H16.875C15.8398 18.75 15 17.9102 15 16.875V5.625C15 4.58984 15.8398 3.75 16.875 3.75Z" fill="#F0869D"/>
</g>
<defs>
<clipPath id="clip0_25_790">
<rect width="20" height="20" fill="white"/>
</clipPath>
</defs>
</svg>
