<svg width="20" height="20" viewBox="0 0 20 20" fill="none" xmlns="http://www.w3.org/2000/svg">
<g clip-path="url(#clip0_25_750)">
<path d="M10 -1.25C10.6914 -1.25 11.25 -0.691406 11.25 0V0.078125C16.1836 0.691406 20 4.90234 20 10C20 10.1484 19.9961 10.293 19.9922 10.4414C19.9805 10.7109 19.7969 10.9414 19.5352 11.0156C19.2734 11.0898 18.9961 10.9883 18.8477 10.7617C18.2852 9.92578 17.332 9.375 16.25 9.375C15.1055 9.375 14.1055 9.98828 13.5586 10.9102C13.4531 11.0898 13.2617 11.207 13.0508 11.2148C12.8398 11.2227 12.6406 11.1289 12.5156 10.9609C11.9453 10.1875 11.0312 9.6875 9.99609 9.6875C8.96094 9.6875 8.04688 10.1875 7.47656 10.9609C7.35156 11.1289 7.15234 11.2266 6.94141 11.2148C6.73047 11.2031 6.54297 11.0898 6.43359 10.9102C5.88672 9.98828 4.88672 9.375 3.74219 9.375C2.66016 9.375 1.70703 9.92578 1.14453 10.7617C0.992187 10.9844 0.714844 11.0898 0.457031 11.0156C0.199219 10.9414 0.0195312 10.7109 0.0078125 10.4414C0.00390625 10.293 0 10.1484 0 10C0 4.90234 3.81641 0.691406 8.75 0.078125V0C8.75 -0.691406 9.30859 -1.25 10 -1.25ZM11.25 12.8125V16.8203C11.25 18.5781 9.82422 20 8.07031 20C6.86719 20 5.76562 19.3203 5.22656 18.2422L5.13672 18.0586C4.82812 17.4414 5.07812 16.6914 5.69531 16.3828C6.3125 16.0742 7.0625 16.3242 7.37109 16.9414L7.46094 17.125C7.57812 17.3555 7.8125 17.5 8.07031 17.5C8.44531 17.5 8.75 17.1953 8.75 16.8203V12.8125C8.75 12.1211 9.30859 11.5625 10 11.5625C10.6914 11.5625 11.25 12.1211 11.25 12.8125Z" fill="#F0869D"/>
</g>
<defs>
<clipPath id="clip0_25_750">
<rect width="20" height="20" fill="white"/>
</clipPath>
</defs>
</svg>
