<svg width="20" height="20" viewBox="0 0 20 20" fill="none" xmlns="http://www.w3.org/2000/svg">
<path d="M10 5C9.6717 5 9.34661 4.93534 9.04329 4.8097C8.73998 4.68406 8.46438 4.49991 8.23223 4.26777C8.00009 4.03562 7.81594 3.76002 7.6903 3.45671C7.56466 3.15339 7.5 2.8283 7.5 2.5C7.5 2.1717 7.56466 1.84661 7.6903 1.54329C7.81594 1.23998 8.00009 0.964379 8.23223 0.732233C8.46438 0.500087 8.73998 0.315938 9.04329 0.190301C9.34661 0.0646644 9.6717 -4.89212e-09 10 0C10.3283 -4.89212e-09 10.6534 0.0646644 10.9567 0.190301C11.26 0.315938 11.5356 0.500087 11.7678 0.732233C11.9999 0.964379 12.1841 1.23998 12.3097 1.54329C12.4353 1.84661 12.5 2.1717 12.5 2.5C12.5 2.8283 12.4353 3.15339 12.3097 3.45671C12.1841 3.76002 11.9999 4.03562 11.7678 4.26777C11.5356 4.49991 11.26 4.68406 10.9567 4.8097C10.6534 4.93534 10.3283 5 10 5ZM10 15C11.3795 15 12.5 16.1205 12.5 17.5C12.5 18.8795 11.3795 20 10 20C8.62054 20 7.5 18.8795 7.5 17.5C7.5 16.1205 8.62054 15 10 15ZM12.5 10C12.5 11.3795 11.3795 12.5 10 12.5C8.62054 12.5 7.5 11.3795 7.5 10C7.5 8.62054 8.62054 7.5 10 7.5C11.3795 7.5 12.5 8.62054 12.5 10Z" fill="#F0869D"/>
</svg>
