<svg width="23" height="20" viewBox="0 0 23 20" fill="none" xmlns="http://www.w3.org/2000/svg">
<g clip-path="url(#clip0_25_791)">
<path d="M8.75 5C8.75 4.33696 9.01339 3.70107 9.48223 3.23223C9.95107 2.76339 10.587 2.5 11.25 2.5C11.913 2.5 12.5489 2.76339 13.0178 3.23223C13.4866 3.70107 13.75 4.33696 13.75 5C13.75 5.66304 13.4866 6.29893 13.0178 6.76777C12.5489 7.23661 11.913 7.5 11.25 7.5C10.587 7.5 9.95107 7.23661 9.48223 6.76777C9.01339 6.29893 8.75 5.66304 8.75 5ZM6.875 13.125C6.875 10.707 8.83203 8.75 11.25 8.75C13.668 8.75 15.625 10.707 15.625 13.125V13.4375C15.625 13.957 15.207 14.375 14.6875 14.375H7.8125C7.29297 14.375 6.875 13.957 6.875 13.4375V13.125ZM15.3125 5.625C15.3125 5.04484 15.543 4.48844 15.9532 4.0782C16.3634 3.66797 16.9198 3.4375 17.5 3.4375C18.0802 3.4375 18.6366 3.66797 19.0468 4.0782C19.457 4.48844 19.6875 5.04484 19.6875 5.625C19.6875 6.20516 19.457 6.76156 19.0468 7.1718C18.6366 7.58203 18.0802 7.8125 17.5 7.8125C16.9198 7.8125 16.3634 7.58203 15.9532 7.1718C15.543 6.76156 15.3125 6.20516 15.3125 5.625ZM16.375 9.54688C16.7305 9.43359 17.1094 9.375 17.5 9.375C19.5703 9.375 21.25 11.0547 21.25 13.125V13.543C21.25 14.0039 20.875 14.375 20.418 14.375H17.3398C17.4453 14.082 17.5 13.7656 17.5 13.4375V13.125C17.5 11.793 17.0859 10.5586 16.375 9.54688ZM6.125 9.54688C5.41406 10.5625 5 11.793 5 13.125V13.4375C5 13.7656 5.05469 14.082 5.16016 14.375H2.08203C1.625 14.375 1.25 14 1.25 13.543V13.125C1.25 11.0547 2.92969 9.375 5 9.375C5.39062 9.375 5.76953 9.43359 6.125 9.54688ZM2.8125 5.625C2.8125 5.04484 3.04297 4.48844 3.4532 4.0782C3.86344 3.66797 4.41984 3.4375 5 3.4375C5.58016 3.4375 6.13656 3.66797 6.5468 4.0782C6.95703 4.48844 7.1875 5.04484 7.1875 5.625C7.1875 6.20516 6.95703 6.76156 6.5468 7.1718C6.13656 7.58203 5.58016 7.8125 5 7.8125C4.41984 7.8125 3.86344 7.58203 3.4532 7.1718C3.04297 6.76156 2.8125 6.20516 2.8125 5.625ZM0 17.1875C0 16.668 0.417969 16.25 0.9375 16.25H21.5625C22.082 16.25 22.5 16.668 22.5 17.1875C22.5 17.707 22.082 18.125 21.5625 18.125H0.9375C0.417969 18.125 0 17.707 0 17.1875Z" fill="#F0869D"/>
</g>
<defs>
<clipPath id="clip0_25_791">
<rect width="22.5" height="20" fill="white"/>
</clipPath>
</defs>
</svg>
