<svg width="20" height="20" viewBox="0 0 20 20" fill="none" xmlns="http://www.w3.org/2000/svg">
<g clip-path="url(#clip0_25_694)">
<path d="M16.2496 8.12381C16.2496 9.91652 15.6676 11.5725 14.6873 12.9161L19.6319 17.8646C20.1201 18.3528 20.1201 19.1456 19.6319 19.6338C19.1437 20.1221 18.3508 20.1221 17.8626 19.6338L12.918 14.6853C11.5745 15.6657 9.91847 16.2476 8.12576 16.2476C3.63814 16.2476 0.00195312 12.6114 0.00195312 8.12381C0.00195312 3.63619 3.63814 0 8.12576 0C12.6134 0 16.2496 3.63619 16.2496 8.12381ZM8.12576 13.748C8.86434 13.748 9.59569 13.6025 10.278 13.3199C10.9604 13.0372 11.5804 12.623 12.1027 12.1007C12.6249 11.5784 13.0392 10.9584 13.3218 10.2761C13.6045 9.59373 13.7499 8.86239 13.7499 8.12381C13.7499 7.38523 13.6045 6.65389 13.3218 5.97153C13.0392 5.28917 12.6249 4.66917 12.1027 4.14692C11.5804 3.62466 10.9604 3.21039 10.278 2.92775C9.59569 2.64511 8.86434 2.49963 8.12576 2.49963C7.38719 2.49963 6.65584 2.64511 5.97348 2.92775C5.29113 3.21039 4.67112 3.62466 4.14887 4.14692C3.62662 4.66917 3.21234 5.28917 2.9297 5.97153C2.64706 6.65389 2.50159 7.38523 2.50159 8.12381C2.50159 8.86239 2.64706 9.59373 2.9297 10.2761C3.21234 10.9584 3.62662 11.5784 4.14887 12.1007C4.67112 12.623 5.29113 13.0372 5.97348 13.3199C6.65584 13.6025 7.38719 13.748 8.12576 13.748Z" fill="#F0869D"/>
</g>
<defs>
<clipPath id="clip0_25_694">
<rect width="20" height="20" fill="white"/>
</clipPath>
</defs>
</svg>
