<svg width="20" height="20" viewBox="0 0 20 20" fill="none" xmlns="http://www.w3.org/2000/svg">
<g clip-path="url(#clip0_25_745)">
<path d="M0 4.27728V16.3906C0 17.1484 0.460938 17.8476 1.18359 18.082C4.85547 19.2538 7.38672 18.4101 9.90625 17.5702C12.3438 16.7578 14.7656 15.9492 18.1914 16.9726C19.0586 17.2304 19.9961 16.6288 19.9961 15.7226V3.60931C19.9961 2.8515 19.5352 2.15228 18.8125 1.91791C15.1406 0.746032 12.6094 1.58978 10.0898 2.42963C7.65234 3.24213 5.23047 4.05072 1.80469 3.02728C0.9375 2.76947 -0.00390625 3.37103 -0.00390625 4.27728H0ZM10 14.3749C7.92969 14.3749 6.25 12.4179 6.25 9.99994C6.25 7.58197 7.92969 5.62494 10 5.62494C12.0703 5.62494 13.75 7.58197 13.75 9.99994C13.75 12.4179 12.0703 14.3749 10 14.3749ZM4.96484 15.8398C4.99219 16.0117 4.85547 16.1562 4.68359 16.1562C4.07031 16.1562 3.42969 16.0859 2.73047 15.9179C2.59375 15.8867 2.49609 15.7617 2.49609 15.6171L2.5 14.0624C2.5 13.8906 2.64062 13.746 2.8125 13.7695C3.91016 13.9062 4.78906 14.7538 4.96875 15.8398H4.96484ZM17.5 13.8515C17.5 14.0468 17.3203 14.1953 17.1289 14.164C16.5273 14.0663 15.9492 14.0117 15.3945 13.996C15.2031 13.9921 15.0547 13.8203 15.1133 13.6367C15.3984 12.7109 16.207 12.0195 17.1914 11.8945C17.3633 11.8749 17.5039 12.0156 17.5039 12.1874V13.8515H17.5ZM17.1875 6.23041C16.0898 6.09369 15.2109 5.24603 15.0312 4.16009C15.0039 3.98822 15.1406 3.84369 15.3125 3.84369C15.9258 3.84369 16.5664 3.914 17.2656 4.08197C17.4023 4.11322 17.5 4.23822 17.5 4.38275V5.94134C17.5 6.11322 17.3594 6.25775 17.1875 6.23431V6.23041ZM4.60547 6.00384C4.79688 6.00775 4.94531 6.17963 4.88672 6.36322C4.60156 7.289 3.79297 7.98041 2.80859 8.10541C2.63672 8.12494 2.49609 7.98431 2.49609 7.81244V6.14838C2.49609 5.95306 2.67578 5.80463 2.86719 5.83588C3.46875 5.93353 4.04688 5.98822 4.60156 6.00384H4.60547ZM9.375 7.34369C8.94531 7.34369 8.59375 7.69525 8.59375 8.12494C8.59375 8.50384 8.86328 8.81634 9.21875 8.89056V10.7812H9.0625C8.63281 10.7812 8.28125 11.1328 8.28125 11.5624C8.28125 11.9921 8.63281 12.3437 9.0625 12.3437H10.9375C11.3672 12.3437 11.7188 11.9921 11.7188 11.5624C11.7188 11.1328 11.3672 10.7812 10.9375 10.7812H10.7812V8.12494C10.7812 7.69525 10.4297 7.34369 10 7.34369H9.375Z" fill="#F0869D"/>
</g>
<defs>
<clipPath id="clip0_25_745">
<rect width="20" height="20" fill="white"/>
</clipPath>
</defs>
</svg>
