<svg width="25" height="20" viewBox="0 0 25 20" fill="none" xmlns="http://www.w3.org/2000/svg">
<g clip-path="url(#clip0_25_756)">
<path d="M0.9375 -0.625C0.417969 -0.625 0 -0.207031 0 0.3125C0 0.832031 0.417969 1.25 0.9375 1.25H2.70703C2.85938 1.25 2.98828 1.35938 3.01562 1.50781L5.05078 12.6914C5.29297 14.0273 6.45703 15 7.81641 15H17.8125C18.332 15 18.75 14.582 18.75 14.0625C18.75 13.543 18.332 13.125 17.8125 13.125H7.81641C7.36328 13.125 6.97656 12.8008 6.89453 12.3555L6.69531 11.25H18.5547C19.7578 11.25 20.7891 10.3945 21.0117 9.21094L22.2227 2.73047C22.3672 1.96094 21.7773 1.25 20.9922 1.25H4.87109L4.85547 1.17188C4.66797 0.132812 3.76172 -0.625 2.70312 -0.625H0.9375ZM8.125 20C8.62228 20 9.09919 19.8025 9.45083 19.4508C9.80246 19.0992 10 18.6223 10 18.125C10 17.6277 9.80246 17.1508 9.45083 16.7992C9.09919 16.4475 8.62228 16.25 8.125 16.25C7.62772 16.25 7.15081 16.4475 6.79917 16.7992C6.44754 17.1508 6.25 17.6277 6.25 18.125C6.25 18.6223 6.44754 19.0992 6.79917 19.4508C7.15081 19.8025 7.62772 20 8.125 20ZM16.875 20C17.3723 20 17.8492 19.8025 18.2008 19.4508C18.5525 19.0992 18.75 18.6223 18.75 18.125C18.75 17.6277 18.5525 17.1508 18.2008 16.7992C17.8492 16.4475 17.3723 16.25 16.875 16.25C16.3777 16.25 15.9008 16.4475 15.5492 16.7992C15.1975 17.1508 15 17.6277 15 18.125C15 18.6223 15.1975 19.0992 15.5492 19.4508C15.9008 19.8025 16.3777 20 16.875 20Z" fill="#F0869D"/>
</g>
<defs>
<clipPath id="clip0_25_756">
<rect width="25" height="20" fill="white"/>
</clipPath>
</defs>
</svg>
