<svg width="20" height="20" viewBox="0 0 20 20" fill="none" xmlns="http://www.w3.org/2000/svg">
<path d="M9.0625 0.9375C9.0625 0.417969 9.48047 0 10 0C10.5195 0 10.9375 0.417969 10.9375 0.9375V2.5H13.125C13.8164 2.5 14.375 3.05859 14.375 3.75C14.375 4.44141 13.8164 5 13.125 5H8.63672C7.66406 5 6.875 5.78906 6.875 6.76172C6.875 7.64062 7.51953 8.38281 8.38672 8.50781L11.9648 9.01953C14.0664 9.32031 15.625 11.1172 15.625 13.2383C15.625 15.5938 13.7148 17.5 11.3633 17.5H10.9375V19.0625C10.9375 19.582 10.5195 20 10 20C9.48047 20 9.0625 19.582 9.0625 19.0625V17.5H6.25C5.55859 17.5 5 16.9414 5 16.25C5 15.5586 5.55859 15 6.25 15H11.3633C12.3359 15 13.125 14.2109 13.125 13.2383C13.125 12.3594 12.4805 11.6172 11.6133 11.4922L8.03516 10.9805C5.93359 10.6836 4.375 8.88281 4.375 6.76172C4.375 4.41016 6.28516 2.5 8.63672 2.5H9.0625V0.9375Z" fill="#F0869D"/>
</svg>
