<svg width="20" height="20" viewBox="0 0 20 20" fill="none" xmlns="http://www.w3.org/2000/svg">
<path d="M0 3.75C0 3.05859 0.558594 2.5 1.25 2.5H16.25C16.9414 2.5 17.5 3.05859 17.5 3.75C17.5 4.44141 16.9414 5 16.25 5H1.25C0.558594 5 0 4.44141 0 3.75ZM2.5 10C2.5 9.30859 3.05859 8.75 3.75 8.75H18.75C19.4414 8.75 20 9.30859 20 10C20 10.6914 19.4414 11.25 18.75 11.25H3.75C3.05859 11.25 2.5 10.6914 2.5 10ZM17.5 16.25C17.5 16.9414 16.9414 17.5 16.25 17.5H1.25C0.558594 17.5 0 16.9414 0 16.25C0 15.5586 0.558594 15 1.25 15H16.25C16.9414 15 17.5 15.5586 17.5 16.25Z" fill="#F0869D"/>
</svg>
