<svg width="20" height="27" viewBox="0 0 20 27" fill="none" xmlns="http://www.w3.org/2000/svg">
<g clip-path="url(#clip0_25_696)">
<path d="M0 3.33333C0 1.49479 1.49479 0 3.33333 0H11.1198C12.0052 0 12.8542 0.348958 13.4792 0.973958L19.026 6.52604C19.651 7.15104 20 8 20 8.88542V23.3333C20 25.1719 18.5052 26.6667 16.6667 26.6667H3.33333C1.49479 26.6667 0 25.1719 0 23.3333V3.33333ZM10.8333 3.04688V7.91667C10.8333 8.60938 11.3906 9.16667 12.0833 9.16667H16.9531L10.8333 3.04688ZM9.11458 22.9688C9.60417 23.4583 10.3958 23.4583 10.8802 22.9688L14.2135 19.6354C14.7031 19.1458 14.7031 18.3542 14.2135 17.8698C13.724 17.3854 12.9323 17.3802 12.4479 17.8698L11.25 19.0677V14.5833C11.25 13.8906 10.6927 13.3333 10 13.3333C9.30729 13.3333 8.75 13.8906 8.75 14.5833V19.0677L7.55208 17.8698C7.0625 17.3802 6.27083 17.3802 5.78646 17.8698C5.30208 18.3594 5.29688 19.151 5.78646 19.6354L9.11979 22.9688H9.11458Z" fill="#F0869D"/>
</g>
<defs>
<clipPath id="clip0_25_696">
<rect width="20" height="26.6667" fill="white"/>
</clipPath>
</defs>
</svg>
