<svg width="20" height="20" viewBox="0 0 20 20" fill="none" xmlns="http://www.w3.org/2000/svg">
<g clip-path="url(#clip0_25_749)">
<path d="M1.875 2.5C0.839844 2.5 0 3.33984 0 4.375C0 4.96484 0.277344 5.51953 0.75 5.875L8.875 11.9688C9.19956 12.2122 9.59431 12.3438 10 12.3438C10.4057 12.3438 10.8004 12.2122 11.125 11.9688L19.25 5.875C19.7227 5.51953 20 4.96484 20 4.375C20 3.33984 19.1602 2.5 18.125 2.5H1.875ZM0 7.65625V15C0 16.3789 1.12109 17.5 2.5 17.5H17.5C18.8789 17.5 20 16.3789 20 15V7.65625L12.25 13.4688C10.918 14.4688 9.08203 14.4688 7.75 13.4688L0 7.65625Z" fill="#F0869D"/>
</g>
<defs>
<clipPath id="clip0_25_749">
<rect width="20" height="20" fill="white"/>
</clipPath>
</defs>
</svg>
