<svg width="18" height="20" viewBox="0 0 18 20" fill="none" xmlns="http://www.w3.org/2000/svg">
<g clip-path="url(#clip0_25_795)">
<path d="M6.67969 -0.625C5.25781 -0.625 4.42188 1.65234 4.01172 3.75H2.8125C2.29297 3.75 1.875 4.16797 1.875 4.6875C1.875 5.20703 2.29297 5.625 2.8125 5.625H3.75V6.875C3.75 7.53906 3.87891 8.17188 4.11328 8.75H2.94922C2.35547 8.75 1.875 9.23047 1.875 9.82422C1.875 9.94141 1.89453 10.0547 1.92969 10.1641L3.05859 13.5469C1.57031 14.8281 0.625 16.7227 0.625 18.8398C0.625 19.4805 1.14453 20 1.78516 20H15.7148C16.3555 20 16.875 19.4805 16.875 18.8398C16.875 16.7227 15.9297 14.8281 14.4414 13.5508L15.5703 10.168C15.6055 10.0586 15.625 9.94531 15.625 9.82812C15.625 9.23438 15.1445 8.75391 14.5508 8.75391H13.3867C13.6211 8.17578 13.75 7.54297 13.75 6.87891V5.62891H14.6875C15.207 5.62891 15.625 5.21094 15.625 4.69141C15.625 4.17188 15.207 3.75391 14.6875 3.75391H13.4883C13.082 1.65625 12.2422 -0.621094 10.8203 -0.621094C10.4453 -0.621094 10.0781 -0.46875 9.74609 -0.300781C9.42578 -0.140625 9.02734 0.00390625 8.75 0.00390625C8.47266 0.00390625 8.07422 -0.140625 7.75391 -0.300781C7.42188 -0.472656 7.05469 -0.625 6.67969 -0.625ZM10.3398 18.2969L9.37109 15.5273L10.4609 14.2578C10.5664 14.1328 10.625 13.9766 10.625 13.8125C10.625 13.4336 10.3203 13.1289 9.94141 13.1289H7.55859C7.17969 13.1289 6.875 13.4336 6.875 13.8125C6.875 13.9766 6.93359 14.1328 7.03906 14.2578L8.12891 15.5273L7.16016 18.2969L4.93359 11.25H6.32812C7.04688 11.6484 7.87109 11.875 8.75 11.875C9.62891 11.875 10.4531 11.6484 11.1719 11.25H12.5664L10.3398 18.2969ZM8.75 10C7.39453 10 6.24219 9.13672 5.80859 7.92969C6.03125 8.05469 6.28906 8.125 6.5625 8.125H7.04688C7.69141 8.125 8.26172 7.71094 8.46484 7.10156C8.55469 6.82812 8.94141 6.82812 9.03125 7.10156C9.23438 7.71094 9.80859 8.125 10.4492 8.125H10.9336C11.207 8.125 11.4648 8.05469 11.6875 7.92969C11.2539 9.13672 10.1016 10 8.74609 10H8.75Z" fill="#F0869D"/>
</g>
<defs>
<clipPath id="clip0_25_795">
<rect width="17.5" height="20" fill="white"/>
</clipPath>
</defs>
</svg>
