<svg width="15" height="20" viewBox="0 0 15 20" fill="none" xmlns="http://www.w3.org/2000/svg">
<g clip-path="url(#clip0_25_741)">
<path d="M0 2.5C0 1.12109 1.12109 0 2.5 0H8.33984C9.00391 0 9.64062 0.261719 10.1094 0.730469L14.2695 4.89453C14.7383 5.36328 15 6 15 6.66406V17.5C15 18.8789 13.8789 20 12.5 20H2.5C1.12109 20 0 18.8789 0 17.5V2.5ZM8.125 2.28516V5.9375C8.125 6.45703 8.54297 6.875 9.0625 6.875H12.7148L8.125 2.28516ZM8.16406 10.2734C7.79687 9.90625 7.20312 9.90625 6.83984 10.2734L4.33984 12.7734C3.97266 13.1406 3.97266 13.7344 4.33984 14.0977C4.70703 14.4609 5.30078 14.4648 5.66406 14.0977L6.5625 13.1992V16.5625C6.5625 17.082 6.98047 17.5 7.5 17.5C8.01953 17.5 8.4375 17.082 8.4375 16.5625V13.1992L9.33594 14.0977C9.70312 14.4648 10.2969 14.4648 10.6602 14.0977C11.0234 13.7305 11.0273 13.1367 10.6602 12.7734L8.16016 10.2734H8.16406Z" fill="#F0869D"/>
</g>
<defs>
<clipPath id="clip0_25_741">
<rect width="15" height="20" fill="white"/>
</clipPath>
</defs>
</svg>
