<svg width="23" height="20" viewBox="0 0 23 20" fill="none" xmlns="http://www.w3.org/2000/svg">
<g clip-path="url(#clip0_25_779)">
<path d="M20.0156 9.37488H13.1406C12.4492 9.37488 11.8906 8.81629 11.8906 8.12488V1.24988C11.8906 0.558475 12.4531 -0.00793105 13.1367 0.0819127C17.3164 0.6366 20.6289 3.9491 21.1836 8.12879C21.2734 8.81238 20.707 9.37488 20.0156 9.37488ZM8.69531 1.45301C9.40234 1.30457 10.0156 1.88269 10.0156 2.60535V10.3124C10.0156 10.5311 10.0937 10.7421 10.2305 10.91L15.3906 17.1366C15.8477 17.6874 15.75 18.5194 15.1211 18.8593C13.7891 19.5858 12.2617 19.9999 10.6406 19.9999C5.46484 19.9999 1.26562 15.8007 1.26562 10.6249C1.26562 6.11316 4.44922 2.34754 8.69531 1.45301ZM18.6641 11.2499H21.1641C21.8867 11.2499 22.4648 11.8632 22.3164 12.5702C21.918 14.4608 20.9492 16.1405 19.5977 17.4218C19.1172 17.8788 18.3633 17.7811 17.9414 17.2694L14.6445 13.2968C13.9687 12.4804 14.5508 11.2499 15.6055 11.2499H18.6602H18.6641Z" fill="#F0869D"/>
</g>
<defs>
<clipPath id="clip0_25_779">
<rect width="22.5" height="20" fill="white"/>
</clipPath>
</defs>
</svg>
