<svg width="25" height="20" viewBox="0 0 25 20" fill="none" xmlns="http://www.w3.org/2000/svg">
<g clip-path="url(#clip0_25_764)">
<path d="M10.0039 0.3125C10.6195 0.3125 11.229 0.433746 11.7977 0.669315C12.3664 0.904884 12.8832 1.25016 13.3185 1.68544C13.7537 2.12071 14.099 2.63746 14.3346 3.20617C14.5702 3.77489 14.6914 4.38443 14.6914 5C14.6914 5.61557 14.5702 6.22511 14.3346 6.79383C14.099 7.36254 13.7537 7.87929 13.3185 8.31456C12.8832 8.74984 12.3664 9.09512 11.7977 9.33068C11.229 9.56625 10.6195 9.6875 10.0039 9.6875C9.38833 9.6875 8.77879 9.56625 8.21008 9.33068C7.64136 9.09512 7.12462 8.74984 6.68934 8.31456C6.25407 7.87929 5.90879 7.36254 5.67322 6.79383C5.43765 6.22511 5.31641 5.61557 5.31641 5C5.31641 4.38443 5.43765 3.77489 5.67322 3.20617C5.90879 2.63746 6.25407 2.12071 6.68934 1.68544C7.12462 1.25016 7.64136 0.904884 8.21008 0.669315C8.77879 0.433746 9.38833 0.3125 10.0039 0.3125ZM8.84375 11.875H11.1641C11.4258 11.875 11.6797 11.8906 11.9336 11.918C11.8984 12.1094 11.8789 12.3047 11.8789 12.5039V16.1016C11.8789 17.0977 12.2734 18.0508 12.9766 18.7539L14.2227 20H3.03906C2.39844 20 1.87891 19.4805 1.87891 18.8398C1.87891 14.9922 4.99609 11.875 8.84375 11.875ZM13.7539 16.1016V12.5039C13.7539 11.8125 14.3125 11.2539 15.0039 11.2539H18.6016C19.0977 11.2539 19.5742 11.4531 19.9258 11.8047L23.6758 15.5547C24.4062 16.2852 24.4062 17.4727 23.6758 18.207L20.7031 21.1797C19.9727 21.9102 18.7852 21.9102 18.0508 21.1797L14.3008 17.4297C13.9492 17.0781 13.75 16.6016 13.75 16.1055L13.7539 16.1016ZM17.8164 14.375C17.8164 14.1264 17.7176 13.8879 17.5418 13.7121C17.366 13.5363 17.1275 13.4375 16.8789 13.4375C16.6303 13.4375 16.3918 13.5363 16.216 13.7121C16.0402 13.8879 15.9414 14.1264 15.9414 14.375C15.9414 14.6236 16.0402 14.8621 16.216 15.0379C16.3918 15.2137 16.6303 15.3125 16.8789 15.3125C17.1275 15.3125 17.366 15.2137 17.5418 15.0379C17.7176 14.8621 17.8164 14.6236 17.8164 14.375Z" fill="#F0869D"/>
</g>
<defs>
<clipPath id="clip0_25_764">
<rect width="25" height="20" fill="white"/>
</clipPath>
</defs>
</svg>
