<svg width="25" height="20" viewBox="0 0 25 20" fill="none" xmlns="http://www.w3.org/2000/svg">
<g clip-path="url(#clip0_25_719)">
<path d="M2.5 0C1.12109 0 0 1.12109 0 2.5V17.5C0 18.8789 1.12109 20 2.5 20H12.5C13.8789 20 15 18.8789 15 17.5V2.5C15 1.12109 13.8789 0 12.5 0H2.5ZM6.875 13.75H8.125C8.81641 13.75 9.375 14.3086 9.375 15V18.125H5.625V15C5.625 14.3086 6.18359 13.75 6.875 13.75ZM3.75 4.375C3.75 4.03125 4.03125 3.75 4.375 3.75H5.625C5.96875 3.75 6.25 4.03125 6.25 4.375V5.625C6.25 5.96875 5.96875 6.25 5.625 6.25H4.375C4.03125 6.25 3.75 5.96875 3.75 5.625V4.375ZM9.375 3.75H10.625C10.9688 3.75 11.25 4.03125 11.25 4.375V5.625C11.25 5.96875 10.9688 6.25 10.625 6.25H9.375C9.03125 6.25 8.75 5.96875 8.75 5.625V4.375C8.75 4.03125 9.03125 3.75 9.375 3.75ZM3.75 9.375C3.75 9.03125 4.03125 8.75 4.375 8.75H5.625C5.96875 8.75 6.25 9.03125 6.25 9.375V10.625C6.25 10.9688 5.96875 11.25 5.625 11.25H4.375C4.03125 11.25 3.75 10.9688 3.75 10.625V9.375ZM9.375 8.75H10.625C10.9688 8.75 11.25 9.03125 11.25 9.375V10.625C11.25 10.9688 10.9688 11.25 10.625 11.25H9.375C9.03125 11.25 8.75 10.9688 8.75 10.625V9.375C8.75 9.03125 9.03125 8.75 9.375 8.75ZM18.125 0C17.4336 0 16.875 0.558594 16.875 1.25V18.75C16.875 19.4414 17.4336 20 18.125 20C18.8164 20 19.375 19.4414 19.375 18.75V7.5H23.75C24.4414 7.5 25 6.94141 25 6.25V2.5C25 1.80859 24.4414 1.25 23.75 1.25H19.375C19.375 0.558594 18.8164 0 18.125 0Z" fill="#F0869D"/>
</g>
<defs>
<clipPath id="clip0_25_719">
<rect width="25" height="20" fill="white"/>
</clipPath>
</defs>
</svg>
