<svg width="20" height="20" viewBox="0 0 20 20" fill="none" xmlns="http://www.w3.org/2000/svg">
<g clip-path="url(#clip0_25_761)">
<path d="M18.75 0.3125C18.75 -0.207031 18.332 -0.625 17.8125 -0.625H13.8359C13.3164 -0.625 12.8984 -0.207031 12.8984 0.3125C12.8984 0.832031 13.3164 1.25 13.8359 1.25H15.5508L11.2031 5.59766L7.48828 2.41406C7.13672 2.11328 6.62109 2.11328 6.26953 2.41406L1.89453 6.16406C1.5 6.5 1.45703 7.09375 1.79297 7.48438C2.12891 7.875 2.72266 7.92188 3.11328 7.58594L6.87891 4.35938L10.6445 7.58594C11.0156 7.90625 11.5703 7.88281 11.918 7.53516L16.8789 2.57422V4.28906C16.8789 4.80859 17.2969 5.22656 17.8164 5.22656C18.3359 5.22656 18.7539 4.80859 18.7539 4.28906L18.75 0.3125ZM1.875 10C0.839844 10 0 10.8398 0 11.875V18.125C0 19.1602 0.839844 20 1.875 20H18.125C19.1602 20 20 19.1602 20 18.125V11.875C20 10.8398 19.1602 10 18.125 10H1.875ZM3.72266 12.1875C3.58984 12.9727 2.97266 13.5938 2.18359 13.7266C2.01172 13.7539 1.87109 13.6133 1.87109 13.4414V12.1914C1.87109 12.0195 2.01172 11.8789 2.18359 11.8789H3.43359C3.60547 11.8789 3.75 12.0195 3.71875 12.1914L3.72266 12.1875ZM3.72266 17.8164C3.75 17.9883 3.60938 18.1289 3.4375 18.1289H2.1875C2.01562 18.1289 1.875 17.9883 1.875 17.8164V16.5664C1.875 16.3945 2.01562 16.25 2.1875 16.2812C2.97266 16.4141 3.59375 17.0312 3.72656 17.8203L3.72266 17.8164ZM17.8125 16.2773C17.9844 16.25 18.125 16.3906 18.125 16.5625V17.8125C18.125 17.9844 17.9844 18.125 17.8125 18.125H16.5625C16.3906 18.125 16.2461 17.9844 16.2773 17.8125C16.4102 17.0273 17.0273 16.4062 17.8164 16.2734L17.8125 16.2773ZM16.2773 12.1875C16.25 12.0156 16.3906 11.875 16.5625 11.875H17.8125C17.9844 11.875 18.125 12.0156 18.125 12.1875V13.4375C18.125 13.6094 17.9844 13.7539 17.8125 13.7227C17.0273 13.5898 16.4062 12.9727 16.2734 12.1836L16.2773 12.1875ZM7.5 15C7.5 14.337 7.76339 13.7011 8.23223 13.2322C8.70107 12.7634 9.33696 12.5 10 12.5C10.663 12.5 11.2989 12.7634 11.7678 13.2322C12.2366 13.7011 12.5 14.337 12.5 15C12.5 15.663 12.2366 16.2989 11.7678 16.7678C11.2989 17.2366 10.663 17.5 10 17.5C9.33696 17.5 8.70107 17.2366 8.23223 16.7678C7.76339 16.2989 7.5 15.663 7.5 15Z" fill="#F0869D"/>
</g>
<defs>
<clipPath id="clip0_25_761">
<rect width="20" height="20" fill="white"/>
</clipPath>
</defs>
</svg>
