<svg width="18" height="20" viewBox="0 0 18 20" fill="none" xmlns="http://www.w3.org/2000/svg">
<g clip-path="url(#clip0_25_780)">
<path d="M17.1523 10.8828C17.6406 10.3945 17.6406 9.60156 17.1523 9.11328L10.9023 2.86328C10.4141 2.375 9.62109 2.375 9.13281 2.86328C8.64453 3.35156 8.64453 4.14453 9.13281 4.63281L14.5 10L9.13672 15.3672C8.64844 15.8555 8.64844 16.6484 9.13672 17.1367C9.625 17.625 10.418 17.625 10.9062 17.1367L17.1563 10.8867L17.1523 10.8828ZM3.40234 17.1328L9.65234 10.8828C10.1406 10.3945 10.1406 9.60156 9.65234 9.11328L3.40234 2.86328C2.91406 2.375 2.12109 2.375 1.63281 2.86328C1.14453 3.35156 1.14453 4.14453 1.63281 4.63281L7 10L1.63672 15.3672C1.14844 15.8555 1.14844 16.6484 1.63672 17.1367C2.125 17.625 2.91797 17.625 3.40625 17.1367L3.40234 17.1328Z" fill="#F0869D"/>
</g>
<defs>
<clipPath id="clip0_25_780">
<rect width="17.5" height="20" fill="white"/>
</clipPath>
</defs>
</svg>
