<svg width="23" height="20" viewBox="0 0 23 20" fill="none" xmlns="http://www.w3.org/2000/svg">
<g clip-path="url(#clip0_25_786)">
<path d="M10 -1.25H12.5C13.1914 -1.25 13.75 -0.691406 13.75 0V2.5H8.75V0C8.75 -0.691406 9.30859 -1.25 10 -1.25ZM2.5 1.25H6.875V2.5C6.875 3.53516 7.71484 4.375 8.75 4.375H13.75C14.7852 4.375 15.625 3.53516 15.625 2.5V1.25H20C21.3789 1.25 22.5 2.37109 22.5 3.75V16.25C22.5 17.6289 21.3789 18.75 20 18.75H2.5C1.12109 18.75 0 17.6289 0 16.25V3.75C0 2.37109 1.12109 1.25 2.5 1.25ZM6.875 15.625C6.875 15.9688 7.15625 16.25 7.5 16.25H15C15.3438 16.25 15.625 15.9688 15.625 15.625C15.625 13.8984 14.2266 12.5 12.5 12.5H10C8.27344 12.5 6.875 13.8984 6.875 15.625ZM11.25 10.9375C11.8302 10.9375 12.3866 10.707 12.7968 10.2968C13.207 9.88656 13.4375 9.33016 13.4375 8.75C13.4375 8.16984 13.207 7.61344 12.7968 7.2032C12.3866 6.79297 11.8302 6.5625 11.25 6.5625C10.6698 6.5625 10.1134 6.79297 9.7032 7.2032C9.29297 7.61344 9.0625 8.16984 9.0625 8.75C9.0625 9.33016 9.29297 9.88656 9.7032 10.2968C10.1134 10.707 10.6698 10.9375 11.25 10.9375Z" fill="#F0869D"/>
</g>
<defs>
<clipPath id="clip0_25_786">
<rect width="22.5" height="20" fill="white"/>
</clipPath>
</defs>
</svg>
