<svg width="20" height="20" viewBox="0 0 20 20" fill="none" xmlns="http://www.w3.org/2000/svg">
<g clip-path="url(#clip0_25_772)">
<path d="M5.88685 0.068384C6.16306 -0.0473263 6.4766 -0.013733 6.72668 0.150501L10.0039 2.32287L13.2811 0.150501C13.5312 -0.013733 13.8447 -0.0435937 14.1209 0.068384C14.3972 0.180362 14.5912 0.426713 14.651 0.717855L15.4311 4.56989L19.2831 5.35C19.5743 5.40972 19.8206 5.61128 19.9326 5.88376C20.0446 6.15624 20.0147 6.47351 19.8505 6.72359L17.6781 10.0008L19.8505 13.278C20.0147 13.5281 20.0446 13.8416 19.9326 14.1179C19.8206 14.3941 19.5743 14.5956 19.2831 14.6516L15.4273 15.428L14.651 19.2838C14.5912 19.5749 14.3897 19.8213 14.1172 19.9332C13.8447 20.0452 13.5275 20.0154 13.2774 19.8511L10.0002 17.6787L6.72295 19.8511C6.47286 20.0154 6.15933 20.0452 5.88311 19.9332C5.6069 19.8213 5.40534 19.5749 5.34935 19.2838L4.57298 15.428L0.717209 14.6479C0.426067 14.5882 0.179716 14.3866 0.067738 14.1141C-0.0442397 13.8416 -0.014379 13.5244 0.149855 13.2743L2.32222 10.0008L0.149855 6.72359C-0.014379 6.47351 -0.0442397 6.15997 0.067738 5.88376C0.179716 5.60755 0.426067 5.40599 0.717209 5.35L4.57298 4.57362L5.35309 0.717855C5.41281 0.426713 5.61437 0.180362 5.88685 0.068384ZM6.98423 10.0008C6.98423 9.20489 7.30041 8.44158 7.8632 7.87878C8.426 7.31598 9.18932 6.99981 9.98523 6.99981C10.7811 6.99981 11.5445 7.31598 12.1073 7.87878C12.6701 8.44158 12.9862 9.20489 12.9862 10.0008C12.9862 10.7967 12.6701 11.56 12.1073 12.1228C11.5445 12.6856 10.7811 13.0018 9.98523 13.0018C9.18932 13.0018 8.426 12.6856 7.8632 12.1228C7.30041 11.56 6.98423 10.7967 6.98423 10.0008ZM14.7779 10.0008C14.7779 8.72972 14.2729 7.51069 13.3741 6.6119C12.4753 5.7131 11.2563 5.20816 9.98523 5.20816C8.71414 5.20816 7.49511 5.7131 6.59632 6.6119C5.69752 7.51069 5.19259 8.72972 5.19259 10.0008C5.19259 11.2719 5.69752 12.4909 6.59632 13.3897C7.49511 14.2885 8.71414 14.7935 9.98523 14.7935C11.2563 14.7935 12.4753 14.2885 13.3741 13.3897C14.2729 12.4909 14.7779 11.2719 14.7779 10.0008Z" fill="#F0869D"/>
</g>
<defs>
<clipPath id="clip0_25_772">
<rect width="20" height="20" fill="white"/>
</clipPath>
</defs>
</svg>
