<svg width="20" height="20" viewBox="0 0 20 20" fill="none" xmlns="http://www.w3.org/2000/svg">
<g clip-path="url(#clip0_25_744)">
<path d="M10 20C12.6522 20 15.1957 18.9464 17.0711 17.0711C18.9464 15.1957 20 12.6522 20 10C20 7.34784 18.9464 4.8043 17.0711 2.92893C15.1957 1.05357 12.6522 0 10 0C7.34784 0 4.8043 1.05357 2.92893 2.92893C1.05357 4.8043 0 7.34784 0 10C0 12.6522 1.05357 15.1957 2.92893 17.0711C4.8043 18.9464 7.34784 20 10 20ZM6.52344 6.52344C6.89062 6.15625 7.48437 6.15625 7.84766 6.52344L9.99609 8.67188L12.1445 6.52344C12.5117 6.15625 13.1055 6.15625 13.4688 6.52344C13.832 6.89062 13.8359 7.48437 13.4688 7.84766L11.3203 9.99609L13.4688 12.1445C13.8359 12.5117 13.8359 13.1055 13.4688 13.4688C13.1016 13.832 12.5078 13.8359 12.1445 13.4688L9.99609 11.3203L7.84766 13.4688C7.48047 13.8359 6.88672 13.8359 6.52344 13.4688C6.16016 13.1016 6.15625 12.5078 6.52344 12.1445L8.67188 9.99609L6.52344 7.84766C6.15625 7.48047 6.15625 6.88672 6.52344 6.52344Z" fill="#F0869D"/>
</g>
<defs>
<clipPath id="clip0_25_744">
<rect width="20" height="20" fill="white"/>
</clipPath>
</defs>
</svg>
