<svg width="20" height="20" viewBox="0 0 20 20" fill="none" xmlns="http://www.w3.org/2000/svg">
<g clip-path="url(#clip0_25_783)">
<path d="M6 0C5.2625 0 4.66666 0.595833 4.66666 1.33333V2.66667H3.33333C1.8625 2.66667 0.666664 3.8625 0.666664 5.33333V7.33333H19.3333V5.33333C19.3333 3.8625 18.1375 2.66667 16.6667 2.66667H15.3333V1.33333C15.3333 0.595833 14.7375 0 14 0C13.2625 0 12.6667 0.595833 12.6667 1.33333V2.66667H7.33333V1.33333C7.33333 0.595833 6.7375 0 6 0ZM0.666664 9.33333V17.3333C0.666664 18.8042 1.8625 20 3.33333 20H16.6667C18.1375 20 19.3333 18.8042 19.3333 17.3333V9.33333H0.666664Z" fill="#F0869D"/>
</g>
<defs>
<clipPath id="clip0_25_783">
<rect width="20" height="20" fill="white"/>
</clipPath>
</defs>
</svg>
